<?xml version="1.0" standalone="no"?>
<!DOCTYPE svg PUBLIC "-//W3C//DTD SVG 1.1//EN" "http://www.w3.org/Graphics/SVG/1.1/DTD/svg11.dtd" >
<svg xmlns="http://www.w3.org/2000/svg">
<metadata></metadata>
<defs>
<font id="museo_cyrl500_italic" horiz-adv-x="1253" >
<font-face units-per-em="2048" ascent="1536" descent="-512" />
<missing-glyph horiz-adv-x="550" />
<glyph horiz-adv-x="0" />
<glyph horiz-adv-x="682" />
<glyph unicode=" "  horiz-adv-x="550" />
<glyph unicode="&#x09;" horiz-adv-x="550" />
<glyph unicode="&#xa0;" horiz-adv-x="550" />
<glyph unicode="!" horiz-adv-x="555" d="M57 0l39 199h205l-39 -199h-205zM147 397l191 1049h205l-217 -1049h-179z" />
<glyph unicode="&#x22;" horiz-adv-x="700" d="M219 1085l74 385h156l-74 -385h-156zM506 1085l76 385h155l-75 -385h-156z" />
<glyph unicode="#" horiz-adv-x="1460" d="M41 391l53 150h266l132 346h-267l54 149h266l151 410h166l-151 -410h317l152 410h166l-152 -410h268l-55 -149h-266l-129 -346h266l-55 -150h-267l-143 -391h-166l144 391h-318l-145 -391h-166l145 391h-266zM528 541h318l129 346h-320z" />
<glyph unicode="$" horiz-adv-x="1181" d="M39 186l129 142q5 -7 14.5 -18t41.5 -39.5t68.5 -50.5t95 -40t120.5 -18q131 0 216 69.5t85 174.5q0 58 -32 103.5t-83 76.5t-112.5 60t-123 63t-112.5 76t-83 108.5t-32 150.5q0 177 131 294.5t330 129.5l37 189h150l-39 -195q126 -19 211.5 -74.5t85.5 -142.5 q0 -34 -9 -61l-18 -99h-184l10 48q6 21 6 43q0 51 -60 79.5t-147 28.5q-140 0 -218.5 -66t-78.5 -161q0 -48 25 -86.5t65.5 -64t93 -52t106.5 -49.5t106.5 -58t93 -75.5t65.5 -103t25 -140.5q0 -184 -128.5 -311t-336.5 -140l-37 -186h-149l36 195q-69 10 -132.5 34 t-103.5 51.5t-70.5 54t-44.5 43.5z" />
<glyph unicode="%" horiz-adv-x="1560" d="M18 0l1368 1446h203l-1368 -1446h-203zM195 1135q0 128 109 231.5t245 103.5q125 0 200.5 -75t75.5 -193q0 -132 -109 -235t-245 -103q-125 0 -200.5 74.5t-75.5 196.5zM354 1137q0 -53 35.5 -87t93.5 -34q71 0 127 53.5t56 126.5q0 55 -35.5 90t-93.5 35 q-70 0 -126.5 -55.5t-56.5 -128.5zM778 244q0 129 109.5 233.5t247.5 104.5q123 0 199.5 -76.5t76.5 -194.5q0 -132 -110 -234t-246 -102q-124 0 -200.5 74.5t-76.5 194.5zM940 248q0 -53 35.5 -87t93.5 -34q71 0 125.5 54t54.5 128q0 53 -35.5 88t-93.5 35 q-68 0 -124 -56.5t-56 -127.5z" />
<glyph unicode="&#x26;" horiz-adv-x="1325" d="M45 356q0 139 95.5 260t244.5 162v4q-6 2 -15.5 7t-34 24.5t-43.5 45t-34.5 71t-15.5 100.5q0 133 71.5 235t184.5 153.5t245 51.5q47 0 95.5 -7t73.5 -14l24 -7l-78 -158q-56 12 -113 12q-120 0 -209.5 -74t-89.5 -198q0 -178 228 -178h268l39 201h199l-39 -201h192 l-35 -168h-192l-37 -197q-48 -255 -194 -380.5t-371 -125.5q-214 0 -336.5 105t-122.5 276zM256 375q0 -100 67 -159.5t185 -59.5q143 0 237 83.5t127 252.5l37 186h-276q-98 0 -181.5 -32.5t-139.5 -103t-56 -167.5z" />
<glyph unicode="'" horiz-adv-x="415" d="M219 1085l74 385h160l-76 -385h-158z" />
<glyph unicode="(" horiz-adv-x="559" d="M70 354q0 651 422 1151h180q-426 -537 -426 -1155q0 -280 96 -545h-168q-104 264 -104 549z" />
<glyph unicode=")" horiz-adv-x="559" d="M-94 -195q426 534 426 1156q0 284 -94 544h165q107 -256 107 -549q0 -652 -424 -1151h-180z" />
<glyph unicode="*" horiz-adv-x="989" d="M180 1090l88 170l252 -105l39 291h186l-71 -291l295 102l24 -174l-303 -79v-5l135 -221l-155 -106l-117 243h-4l-205 -241l-133 108l227 232v4z" />
<glyph unicode="+" horiz-adv-x="1181" d="M29 504l30 160h457l100 503h168l-98 -503h455l-29 -160h-457l-98 -504h-168l98 504h-458z" />
<glyph unicode="," horiz-adv-x="518" d="M-96 -207l209 422h198l-256 -422h-151z" />
<glyph unicode="-" horiz-adv-x="841" d="M100 496l33 176h598l-35 -176h-596z" />
<glyph unicode="." horiz-adv-x="452" d="M12 0l39 211h203l-39 -211h-203z" />
<glyph unicode="/" horiz-adv-x="880" d="M-47 -86l831 1610h189l-834 -1610h-186z" />
<glyph unicode="0" horiz-adv-x="1241" d="M100 453q0 83 10.5 173.5t34 190.5t58.5 192.5t89 177t119.5 147t155 99.5t191.5 37q426 0 426 -477q0 -83 -10 -173.5t-34 -190.5t-58.5 -192.5t-88.5 -177.5t-119.5 -147.5t-155 -99.5t-192.5 -37q-426 0 -426 478zM309 457q0 -299 221 -299q78 0 145.5 41t115 109.5 t84 154t58 180t32 180.5t10.5 162q0 303 -223 303q-89 0 -165 -56t-126 -144.5t-85.5 -200.5t-51 -221t-15.5 -209z" />
<glyph unicode="1" horiz-adv-x="946" d="M-23 0l31 176h318l182 934l20 88h-4q-23 -31 -86 -84l-159 -131l-97 127l410 336h188l-250 -1270h316l-35 -176h-834z" />
<glyph unicode="2" horiz-adv-x="1167" d="M-12 127q0 85 31.5 159t84.5 130.5t122 107t145.5 92.5t152.5 82.5t145 83t122 87.5t84.5 102t31.5 121q0 91 -57 140.5t-160 49.5q-97 0 -165.5 -40t-82.5 -103l-10 -58h-188l20 111q14 70 60 125t110.5 87.5t136.5 49t146 16.5q183 0 293 -95t110 -263 q0 -83 -30.5 -157.5t-82.5 -132t-119.5 -109t-141.5 -94t-148.5 -82t-142 -77.5t-119.5 -75.5t-82.5 -81.5t-30.5 -90q0 -22 9.5 -29.5t37.5 -7.5h504q44 0 53 45l21 92h186l-35 -182q-13 -69 -50.5 -100t-106.5 -31h-740q-66 0 -90 30t-24 97z" />
<glyph unicode="3" horiz-adv-x="1136" d="M-8 168l121 139q5 -6 14.5 -16t42 -36t67.5 -45.5t90 -35.5t111 -16q147 0 255 94t108 229q0 105 -76.5 162t-198.5 57l-90 -6l-28 109l411 407q15 16 33.5 31.5t29.5 22.5l11 8v4q-47 -6 -76 -6h-338q-44 0 -53 -45l-18 -92h-185l35 182q14 69 50.5 100t105.5 31h760 l-29 -141l-469 -463q45 -6 88 -19t89.5 -40t81 -64t57 -94.5t22.5 -126.5q0 -101 -43.5 -195.5t-118.5 -167t-184 -116.5t-232 -44q-81 0 -156.5 20t-125.5 48.5t-88.5 56.5t-55.5 48z" />
<glyph unicode="4" horiz-adv-x="1204" d="M-2 381l25 133l829 932h238l-172 -889h223l-33 -176h-225l-76 -381h-199l74 381h-684zM268 557h449l102 528q4 24 12.5 55t14.5 50l6 20h-4q-45 -65 -80 -104l-500 -545v-4z" />
<glyph unicode="5" horiz-adv-x="1122" d="M-2 164l121 133q4 -6 13 -15t38.5 -33t62.5 -42.5t85.5 -33.5t107.5 -15q99 0 187.5 45t143 125t54.5 176q0 115 -77 180.5t-204 65.5q-65 0 -130 -18t-98 -36l-32 -18l-116 47l176 594q21 69 54.5 98t100.5 29h496q71 0 97 -32.5t12 -102.5l-35 -178h-183l19 92 q9 45 -37 45h-305q-44 0 -53 -45l-80 -267l-29 -84h4q9 5 26 12.5t69 19.5t104 12q188 0 310 -113t122 -293q0 -147 -82.5 -271.5t-220.5 -195t-297 -70.5q-60 0 -115.5 10.5t-97 27t-77.5 37t-60 40.5t-41 36.5t-25 27.5z" />
<glyph unicode="6" horiz-adv-x="1185" d="M86 502q0 80 17 170t52.5 184t84.5 183t118 167t149.5 137t181.5 93t210 34q79 0 151 -15t104 -31l32 -15l-86 -166q-10 5 -27.5 13t-71 21t-106.5 13q-79 0 -153 -28t-132.5 -75t-109 -110.5t-86 -133t-58.5 -144.5h4q56 63 146.5 99t185.5 36q184 0 291 -108.5 t107 -282.5q0 -104 -38.5 -205t-107 -182t-172.5 -131t-225 -50q-210 0 -335.5 142.5t-125.5 384.5zM293 481q0 -129 72.5 -226t191.5 -97q138 0 232 110t94 264q0 106 -64.5 170t-185.5 64q-127 0 -233.5 -82.5t-106.5 -202.5z" />
<glyph unicode="7" horiz-adv-x="1077" d="M66 0l815 1182q20 29 38 51t27 29l8 8v4q-26 -4 -77 -4h-457q-46 0 -55 -45l-17 -92h-186l35 182q12 69 48 100t105 31h871l-27 -139l-907 -1307h-221z" />
<glyph unicode="8" horiz-adv-x="1191" d="M47 356q0 50 14.5 99.5t34 87t53 77t58 63.5t63 53.5t54.5 40.5t45 30q-131 99 -131 244q0 78 35 152.5t97.5 134t159.5 96t211 36.5q193 0 305.5 -89t112.5 -240q0 -62 -23.5 -126.5t-53.5 -111t-72.5 -94t-64.5 -67.5t-46 -40q160 -104 160 -266q0 -123 -73 -228.5 t-202 -169t-284 -63.5q-202 0 -327.5 104.5t-125.5 276.5zM256 379q0 -104 71.5 -164.5t182.5 -60.5q84 0 160.5 32t128 97t51.5 147q0 37 -16 69t-39 54.5t-62 47t-71 40t-82 39t-80 39.5q-244 -155 -244 -340zM438 1053q0 -29 9 -55t29 -48t40 -39t54.5 -36.5t58.5 -31.5 t66.5 -32t64.5 -31q19 16 44.5 41.5t63 72t62 106.5t24.5 118q0 81 -58.5 127.5t-160.5 46.5q-127 0 -212 -69.5t-85 -169.5z" />
<glyph unicode="9" horiz-adv-x="1183" d="M51 39l82 164q10 -5 27.5 -12.5t70 -20t103.5 -12.5q99 0 188 41.5t156 112.5t116.5 156t79.5 181h-4q-58 -63 -148 -99t-185 -36q-183 0 -289.5 108.5t-106.5 278.5q0 105 38.5 206.5t106 182.5t171.5 130.5t225 49.5q210 0 336.5 -142t126.5 -384q0 -94 -24.5 -200 t-69.5 -215t-116.5 -208t-159 -176.5t-203 -123.5t-242.5 -46q-77 0 -147 16t-101 32zM346 913q0 -103 64.5 -166t183.5 -63q81 0 159.5 35.5t131.5 102t53 145.5q0 128 -72 225.5t-190 97.5q-140 0 -235 -111t-95 -266z" />
<glyph unicode=":" horiz-adv-x="444" d="M2 0l41 211h205l-41 -211h-205zM164 825l41 211h205l-43 -211h-203z" />
<glyph unicode=";" horiz-adv-x="550" d="M-61 -207l186 422h199l-234 -422h-151zM248 825l39 211h205l-41 -211h-203z" />
<glyph unicode="&#x3c;" horiz-adv-x="1181" d="M68 516v135l954 426v-182l-733 -309v-4l733 -310v-182z" />
<glyph unicode="=" horiz-adv-x="1181" d="M92 309v160h977v-160h-977zM92 696v160h977v-160h-977z" />
<glyph unicode="&#x3e;" horiz-adv-x="1181" d="M145 90v182l734 310v4l-734 309v182l955 -426v-135z" />
<glyph unicode="?" horiz-adv-x="968" d="M190 0l41 203h207l-41 -203h-207zM221 1356q7 5 19 13t51 28.5t79.5 36t99.5 28.5t116 13q167 0 274 -89.5t107 -238.5q0 -74 -24 -138t-63.5 -111t-87.5 -88.5t-98 -79t-93.5 -74t-75.5 -81.5t-42 -94l-16 -84h-195l19 97q13 66 46 124t75 100t89.5 81t92.5 74t81.5 71 t58.5 81.5t22 96.5q0 73 -53.5 119.5t-143.5 46.5q-60 0 -122.5 -21.5t-94.5 -42.5l-33 -22z" />
<glyph unicode="@" horiz-adv-x="1609" d="M68 373q0 173 74 334.5t197 280.5t293 191t353 72q224 0 336.5 -97t112.5 -253q0 -47 -9 -94l-108 -551h147l-28 -150h-537q-174 0 -276.5 95t-102.5 237q0 84 37 163.5t103 140.5t164 98t212 37h211q4 20 4 36q0 73 -77.5 123.5t-208.5 50.5q-138 0 -267.5 -61 t-222.5 -160t-149 -229t-56 -264q0 -207 128.5 -339t349.5 -132l-31 -158q-188 0 -335.5 78.5t-230.5 222t-83 328.5zM723 449q0 -86 54 -139.5t145 -53.5h204l95 483h-203q-119 0 -207 -88t-88 -202z" />
<glyph unicode="A" horiz-adv-x="1363" d="M-88 0l35 176h37q26 0 40 9t27 36l692 1225h215l216 -1229q4 -25 14 -33t35 -8h37l-35 -176h-123q-66 0 -92 24t-37 95l-51 297h-531l-168 -297q-39 -71 -73 -95t-99 -24h-139zM473 588h432l-74 442q-4 32 -8 82.5t-6 84.5l-2 34h-4q-55 -129 -96 -201z" />
<glyph unicode="B" horiz-adv-x="1247" d="M106 92q0 19 11 76l215 1102h-133l34 176h605q169 0 268.5 -82.5t99.5 -228.5q0 -126 -73.5 -226.5t-180.5 -144.5v-4q85 -35 135 -111t50 -186q0 -159 -98.5 -276.5t-241.5 -161.5q-82 -25 -181 -25h-391q-119 0 -119 92zM332 207q0 -31 37 -31h262q61 0 108 19 q84 31 135.5 106t51.5 168q0 98 -56.5 149.5t-156.5 51.5h-293l-82 -416q-6 -27 -6 -47zM453 838h290q106 0 180 76.5t74 183.5q0 81 -47 126.5t-139 45.5h-274z" />
<glyph unicode="C" horiz-adv-x="1419" d="M84 604q0 165 66.5 322.5t179 277.5t273 193t337.5 73q83 0 167.5 -16.5t160.5 -49t124 -89t48 -127.5q0 -30 -13 -90l-16 -82h-186l16 78q3 13 3 25q0 35 -22 63q-30 38 -82 58t-105 30t-101 10q-124 0 -241 -52t-204.5 -140.5t-140.5 -212.5t-53 -261 q0 -200 117.5 -323t320.5 -123q130 0 254.5 45.5t216.5 128.5l92 -160q-104 -96 -262 -151.5t-323 -55.5q-276 0 -451.5 176.5t-175.5 452.5z" />
<glyph unicode="D" horiz-adv-x="1468" d="M106 92q0 19 11 76l215 1102h-133l34 176h566q296 0 462 -150.5t166 -433.5q0 -174 -64.5 -332t-177.5 -275t-276.5 -186t-351.5 -69h-332q-119 0 -119 92zM332 207q0 -31 37 -31h188q145 0 269.5 54.5t208.5 146.5t131.5 215t47.5 258q0 209 -115 314.5t-329 105.5h-233 l-199 -1016q-6 -27 -6 -47z" />
<glyph unicode="E" horiz-adv-x="1169" d="M106 92q0 19 11 76l215 1102h-133l34 176h838q121 0 121 -92q0 -29 -10 -74l-29 -147h-186l12 57q6 35 6 49q0 31 -41 31h-407l-88 -453h505l-34 -176h-506l-76 -387q-6 -27 -6 -47q0 -31 37 -31h422q46 0 55 45l18 92h187l-37 -186q-12 -69 -48 -98t-102 -29h-639 q-119 0 -119 92z" />
<glyph unicode="F" horiz-adv-x="1050" d="M82 0l248 1270h-133l36 176h785q121 0 121 -92q0 -24 -11 -74l-28 -147h-187l11 57q8 46 8 49q0 31 -41 31h-356l-93 -477h496l-37 -177h-491l-123 -616h-205z" />
<glyph unicode="G" horiz-adv-x="1490" d="M82 590q0 137 43 268.5t123.5 241t187 193t241.5 130.5t279 47q91 0 174 -18.5t137 -44.5t95 -52t60 -45l18 -18l-119 -149q-5 6 -15 15t-45.5 32.5t-74.5 41.5t-102 33t-130 15q-175 0 -327 -92t-242 -247t-90 -333q0 -206 118 -324t310 -118q74 0 147.5 19t126 46.5 t94 55t62.5 46.5l21 19l22 119q8 36 8 45q0 31 -39 31h-92l31 168h186q121 0 121 -92q0 -7 -10 -74l-107 -549h-182l21 94l14 60h-4q-66 -68 -191.5 -123.5t-279.5 -55.5q-261 0 -425.5 170t-164.5 445z" />
<glyph unicode="H" horiz-adv-x="1550" d="M84 0l231 1186q9 52 9 53q0 31 -41 31h-84l34 176h195q119 0 119 -92q0 -38 -8 -74l-95 -469h738l100 510q13 69 48.5 97t101.5 28h213l-35 -176h-92q-42 0 -50 -45l-239 -1225h-205l123 635h-735l-123 -635h-205z" />
<glyph unicode="I" horiz-adv-x="651" d="M-31 0l35 176h139l213 1094h-141l35 176h477l-35 -176h-139l-213 -1094h139l-35 -176h-475z" />
<glyph unicode="J" horiz-adv-x="1042" d="M-16 311q0 45 10 113l10 63h205l-10 -55q-9 -70 -9 -84q0 -93 52.5 -136.5t132.5 -43.5q96 0 173 62.5t103 193.5l150 768q6 30 6 47q0 31 -41 31h-350l35 176h460q121 0 121 -92q0 -4 -10 -72l-172 -885q-17 -90 -53.5 -163t-83.5 -120.5t-105.5 -79.5t-117.5 -45.5 t-121 -13.5q-105 0 -191 36.5t-140 114.5t-54 185z" />
<glyph unicode="K" d="M84 0l231 1186q1 8 3.5 20t4 19.5t1.5 11.5q0 33 -41 33h-84l34 176h195q119 0 119 -92q0 -38 -8 -74l-86 -442h137q81 0 119 49l430 559h239l-467 -600q-24 -30 -48.5 -53.5t-36.5 -32.5l-13 -8v-4q31 -28 51 -91l133 -432q17 -49 78 -49h66l-37 -176h-131 q-68 0 -103.5 25.5t-54.5 83.5l-153 501q-8 30 -34.5 41t-76.5 11h-133l-129 -662h-205z" />
<glyph unicode="L" horiz-adv-x="1097" d="M106 92q0 19 11 76l198 1018q9 52 9 53q0 31 -41 31h-84l34 176h195q119 0 119 -92q0 -38 -8 -74l-201 -1026q-6 -27 -6 -47q0 -31 37 -31h399q44 0 53 45l19 92h186l-35 -186q-12 -69 -48 -98t-101 -29h-617q-119 0 -119 92z" />
<glyph unicode="M" horiz-adv-x="1765" d="M-72 0l33 176h68q43 0 55 45l336 1225h205l190 -768l35 -182h4q54 98 107 182l489 768h219l-135 -1190q-4 -36 -4 -49q0 -31 35 -31h69l-35 -176h-167q-66 0 -94.5 23t-28.5 77q0 8 6 56l86 739q4 38 13.5 91.5t16.5 87.5l7 34h-4q-70 -139 -119 -213l-416 -635h-172 l-168 635q-8 34 -17.5 87.5t-14.5 90.5l-5 37h-4q-22 -131 -45 -215l-209 -772q-19 -66 -51.5 -94.5t-95.5 -28.5h-189z" />
<glyph unicode="N" horiz-adv-x="1548" d="M-49 0l35 176h86q46 0 55 45l240 1225h178l467 -924q17 -35 38 -84t34 -80l12 -32h4q10 114 26 196l156 799q12 69 47 97t101 28h215l-35 -176h-92q-44 0 -52 -45l-237 -1225h-178l-471 924q-16 35 -36 83.5t-32 79.5l-12 31h-4q-13 -112 -29 -194l-154 -801 q-13 -64 -48.5 -93.5t-100.5 -29.5h-213z" />
<glyph unicode="O" horiz-adv-x="1628" d="M82 606q0 137 47 268.5t131.5 238t194 187.5t242 125.5t268.5 44.5q184 0 327.5 -78.5t222 -219t78.5 -318.5q0 -174 -74 -337t-195 -281t-283 -189.5t-330 -71.5q-278 0 -453.5 177t-175.5 454zM295 614q0 -197 121 -321.5t313 -124.5q120 0 238 54.5t209 144.5 t147.5 215.5t56.5 259.5q0 195 -120.5 316.5t-311.5 121.5q-122 0 -241 -53t-209.5 -141.5t-146.5 -213t-56 -258.5z" />
<glyph unicode="P" horiz-adv-x="1204" d="M82 0l248 1270h-133l36 176h617q177 0 286 -101t109 -278q0 -159 -86 -286.5t-213 -190.5q-113 -55 -239 -55h-316l-104 -535h-205zM426 711h266q141 0 241.5 95.5t100.5 242.5q0 111 -60.5 166t-170.5 55h-268z" />
<glyph unicode="Q" horiz-adv-x="1628" d="M82 606q0 171 73.5 331.5t193.5 276.5t280.5 186t328.5 70q186 0 331 -78.5t224.5 -219t79.5 -318.5q0 -172 -71 -330t-195 -282l127 -156l-137 -127l-135 168q-222 -152 -467 -152q-280 0 -456.5 177.5t-176.5 453.5zM295 614q0 -197 121 -321.5t313 -124.5 q177 0 330 106l-150 183l138 125l151 -191q86 92 134 208t48 243q0 195 -120.5 316.5t-311.5 121.5q-122 0 -241 -53t-209.5 -141.5t-146.5 -213t-56 -258.5z" />
<glyph unicode="R" horiz-adv-x="1271" d="M82 0l248 1270h-133l36 176h617q168 0 270.5 -92t102.5 -256q0 -93 -32 -175t-83.5 -138.5t-112.5 -93.5t-123 -50v-4q27 -23 41 -68l107 -340q16 -53 72 -53h61l-35 -176h-108q-73 0 -107.5 24t-56.5 91l-123 383q-17 50 -39.5 63.5t-81.5 13.5h-203l-112 -575h-205z M434 752h268q128 0 219 91t91 226q0 100 -52.5 150.5t-152.5 50.5h-272z" />
<glyph unicode="S" horiz-adv-x="1081" d="M-14 186l131 142q5 -7 14.5 -18t41.5 -39.5t68.5 -50.5t95 -40t120.5 -18q131 0 216 69.5t85 174.5q0 57 -32 102.5t-83 76.5t-113 60t-124 63.5t-113 76.5t-83 108.5t-32 150.5q0 187 148 306.5t364 119.5q95 0 182.5 -23t150 -76t62.5 -126q0 -25 -8 -61l-20 -99h-183 l9 48q6 21 6 43q0 52 -59 80t-146 28q-140 0 -218.5 -66t-78.5 -161q0 -54 32 -95.5t83 -70.5t113 -56.5t124 -62t113 -77t83 -111t32 -156.5q0 -195 -142 -324t-370 -129q-65 0 -126 11.5t-106.5 30t-85.5 41t-67 45.5t-46.5 41.5t-28.5 29.5z" />
<glyph unicode="T" horiz-adv-x="1286" d="M127 1133l37 196q12 66 41.5 91.5t95.5 25.5h989q64 0 89.5 -23.5t25.5 -68.5q0 -29 -10 -74l-27 -147h-184l12 57q8 40 8 49q0 31 -43 31h-284l-248 -1270h-205l248 1270h-291q-44 0 -53 -45l-19 -92h-182z" />
<glyph unicode="U" horiz-adv-x="1466" d="M152 403q0 55 12 117l131 666q8 46 8 53q0 31 -41 31h-84l35 176h195q120 0 120 -92q0 -29 -10 -74l-149 -768q-11 -43 -11 -86q0 -122 76.5 -190t210.5 -68q159 0 272.5 93t145.5 255l158 805q12 69 46.5 97t100.5 28h213l-33 -176h-92q-43 0 -51 -45l-143 -738 q-45 -232 -213 -372t-414 -140q-224 0 -353.5 116.5t-129.5 311.5z" />
<glyph unicode="V" horiz-adv-x="1370" d="M150 1270l34 176h133q61 0 87.5 -25.5t37.5 -93.5l144 -891q4 -31 8 -80.5t6 -83.5l2 -34h4q49 116 94 198l492 891q38 72 73.5 95.5t104.5 23.5h133l-35 -176h-34q-26 0 -41.5 -9t-28.5 -36l-694 -1225h-217l-215 1225q-7 45 -52 45h-36z" />
<glyph unicode="W" horiz-adv-x="1980" d="M158 1270l32 176h132q69 0 101.5 -25.5t35.5 -93.5l45 -930q1 -27 1 -51v-23q-1 -34 -3 -57l-2 -22h4q28 73 65 153l496 1045h182l68 -1045q2 -36 2 -74t-1 -59l-1 -20h4q24 75 59 153l406 930q30 68 73 93.5t103 25.5h145l-34 -176h-41q-51 0 -70 -45l-555 -1225h-240 l-67 913q-4 41 -4 90v30q0 28 1 48l1 29h-4q-39 -103 -84 -195l-443 -915h-239l-78 1221q-3 49 -49 49h-41z" />
<glyph unicode="X" horiz-adv-x="1216" d="M-88 0l602 752l-205 467q-21 51 -86 51h-51l35 176h112q70 0 106.5 -23t63.5 -88l113 -268l62 -168h4q59 88 120 168l213 268q50 64 91.5 87.5t109.5 23.5h139l-34 -176h-50q-34 0 -57.5 -10.5t-46.5 -40.5l-395 -482l321 -737h-223l-184 432q-14 31 -29.5 70.5 t-24.5 63.5l-8 24h-4q-53 -78 -119 -158l-342 -432h-233z" />
<glyph unicode="Y" horiz-adv-x="1241" d="M147 1270l35 176h92q66 0 99.5 -22.5t60.5 -88.5l156 -362q14 -33 28 -74t22 -65l7 -25h4q58 90 115 164l287 362q51 66 93 88.5t107 22.5h125l-35 -176h-47q-54 0 -90 -47l-481 -592l-123 -631h-205l123 631l-252 588q-19 51 -71 51h-50z" />
<glyph unicode="Z" horiz-adv-x="1230" d="M-49 0l24 135l891 1004q29 32 63 65t53 50l19 16v4q-38 -4 -108 -4h-449q-44 0 -53 -45l-18 -92h-189l35 182q13 69 51 100t107 31h928l-27 -133l-897 -1006q-29 -33 -63 -65.5t-53 -49.5l-19 -16v-4q38 4 108 4h498q46 0 55 45l17 92h188l-35 -182q-13 -69 -50.5 -100 t-106.5 -31h-969z" />
<glyph unicode="[" horiz-adv-x="579" d="M31 -63l278 1437q13 69 51 100t107 31h207l-29 -149h-121q-44 0 -53 -45l-254 -1309q-9 -45 37 -45h121l-31 -152h-209q-69 0 -93.5 31.5t-10.5 100.5z" />
<glyph unicode="\" horiz-adv-x="833" d="M250 1524h170l207 -1610h-168z" />
<glyph unicode="]" horiz-adv-x="581" d="M-72 -195l27 152h121q44 0 53 45l254 1309q9 45 -37 45h-121l31 149h207q70 0 95 -31t11 -100l-278 -1437q-13 -69 -51 -100.5t-107 -31.5h-205z" />
<glyph unicode="^" d="M23 506l409 940h129l410 -940h-180l-295 721l-293 -721h-180z" />
<glyph unicode="_" horiz-adv-x="1146" d="M-106 -160l30 160h1100l-29 -160h-1101z" />
<glyph unicode="`" horiz-adv-x="776" d="M207 1806h192l105 -260h-148z" />
<glyph unicode="a" horiz-adv-x="1083" d="M-8 248q0 87 40.5 156.5t107 113.5t158 73.5t187.5 41.5t201 12h51l4 25q9 44 9 80q0 153 -185 153q-68 0 -127.5 -18t-66.5 -62l-11 -59h-188l21 104q10 53 50.5 92t99 60t120.5 31t127 10q182 0 270 -77t88 -216q0 -46 -14 -121l-76 -403q-8 -28 -8 -43q0 -31 37 -31 h86l-35 -170h-174q-58 0 -85.5 22.5t-27.5 61.5q0 44 21 113h-4q2 0 -13 -23t-46 -55.5t-73.5 -65t-107 -55.5t-135.5 -23q-129 0 -215 70.5t-86 202.5zM193 276q0 -68 43 -107.5t114 -39.5q64 0 126.5 33t107.5 84t76.5 108.5t41.5 110.5l9 37h-52q-60 0 -116 -4.5 t-122.5 -19t-114.5 -38.5t-80.5 -66t-32.5 -98z" />
<glyph unicode="b" horiz-adv-x="1196" d="M20 0l232 1200q6 24 6 45q0 31 -37 31h-84l35 170h188q60 0 88.5 -21.5t28.5 -68.5q0 -16 -8 -62l-61 -317q-4 -23 -10.5 -46.5t-10.5 -35.5l-4 -12h4q55 79 149 128.5t195 49.5q183 0 285 -114.5t102 -311.5q0 -114 -31 -218t-85.5 -183.5t-125.5 -138.5t-154 -89.5 t-167 -30.5q-109 0 -194.5 49.5t-122.5 143.5h-5q0 -39 -10 -82l-14 -86h-189zM301 410q0 -116 57.5 -189.5t173.5 -73.5q68 0 135.5 33t123 92t90 150.5t34.5 198.5q0 124 -62 195t-171 71q-104 0 -192.5 -67.5t-138.5 -177t-50 -232.5z" />
<glyph unicode="c" horiz-adv-x="1075" d="M43 434q0 168 85 312.5t229.5 229.5t312.5 85q47 0 97.5 -7t105 -25t94 -44.5t61.5 -70.5q14 -29 13 -62q0 -17 -3 -35l-16 -90h-176l8 43q1 7 1 14q0 31 -26 54q-32 29 -78 41t-96 12q-163 0 -286 -130t-123 -308q0 -135 77 -218t224 -83q59 0 114.5 13t93.5 31t68 36 t44 31l14 13l57 -157q-6 -6 -17 -15.5t-49.5 -34.5t-83 -44t-115.5 -34.5t-147 -15.5q-227 0 -355 127t-128 332z" />
<glyph unicode="d" horiz-adv-x="1234" d="M45 401q0 142 47.5 267t126 210t180.5 134t211 49q69 0 129.5 -19.5t108.5 -61t70 -101.5h4q2 36 8 73l47 248q6 27 6 45q0 31 -37 31h-82l33 170h190q117 0 117 -90q0 -22 -8 -62l-205 -1048q-6 -24 -6 -45q0 -31 37 -31h84l-35 -170h-172q-111 0 -111 84q0 35 19 98h-4 q-60 -92 -155 -149.5t-214 -57.5q-185 0 -287 114t-102 312zM246 418q0 -127 62.5 -199t168.5 -72q108 0 197.5 71.5t137.5 180t48 224.5q0 115 -57.5 189.5t-171.5 74.5q-69 0 -137 -33.5t-123.5 -92t-90 -149t-34.5 -194.5z" />
<glyph unicode="e" horiz-adv-x="1101" d="M43 416q0 172 77.5 319.5t217 236.5t309.5 89q193 0 293 -104.5t100 -278.5q0 -39 -7.5 -85t-14.5 -73l-8 -26h-756q-8 -35 -8 -74q0 -121 78 -197t217 -76q50 0 102 12.5t91 29.5t71 34.5t49 30.5l16 12l58 -153q-7 -6 -20 -15t-55.5 -33t-86.5 -42t-109.5 -33 t-128.5 -15q-223 0 -354 122.5t-131 318.5zM285 635h551q6 30 6 59q0 100 -55.5 154.5t-145.5 54.5q-116 0 -213.5 -71.5t-142.5 -196.5z" />
<glyph unicode="f" horiz-adv-x="651" d="M59 0l170 877h-129l31 159h129l6 35q17 98 58 171.5t87.5 113t105.5 63.5t103 30.5t89 6.5q26 0 50.5 -1.5t36.5 -2.5l11 -2l-35 -166q-6 4 -55 4q-36 0 -70.5 -8.5t-73 -30.5t-68.5 -68t-42 -112l-4 -33h243l-30 -159h-246l-170 -877h-197z" />
<glyph unicode="g" horiz-adv-x="1216" d="M-12 -342l88 158q12 -8 35 -19.5t94 -31t143 -19.5q331 0 391 320q7 35 15 64t12 40l4 12h-4q-122 -170 -320 -170q-187 0 -292 115.5t-105 304.5q0 88 23 176.5t69.5 170t110.5 144.5t154 100.5t192 37.5q130 0 215.5 -51.5t104.5 -122.5h4q-2 14 2 43q19 106 139 106 h194l-32 -170h-84q-47 0 -56 -43l-151 -790q-25 -121 -84 -213t-139 -145t-169.5 -79t-185.5 -26q-218 0 -368 88zM254 446q0 -122 62.5 -192t177.5 -70q86 0 156.5 45.5t113 117.5t65.5 155t23 164q0 223 -240 223q-110 0 -193.5 -66t-124 -165.5t-40.5 -211.5z" />
<glyph unicode="h" horiz-adv-x="1234" d="M18 0l234 1198q8 32 8 47q0 31 -39 31h-84l35 170h188q60 0 88.5 -21.5t28.5 -68.5q0 -16 -8 -62l-74 -379l-20 -90h4q25 38 62 75t89.5 75.5t124 62t148.5 23.5q144 0 219.5 -73t75.5 -208q0 -43 -15 -127l-79 -420q-1 -4 -2.5 -11t-3 -12.5t-1.5 -8.5q0 -31 37 -31h84 l-33 -170h-190q-117 0 -117 94q0 23 6 47l95 477q10 58 10 103q0 158 -160 158q-100 0 -191 -60.5t-149 -150t-78 -185.5l-94 -483h-199z" />
<glyph unicode="i" horiz-adv-x="542" d="M78 94q0 28 6 51l125 646q6 30 6 45q0 30 -37 30h-84l33 170h190q59 0 87 -21.5t28 -68.5q0 -17 -8 -63l-125 -650q-6 -30 -6 -32q0 -31 39 -31h82l-31 -170h-190q-115 0 -115 94zM299 1239l41 207h180l-41 -207h-180z" />
<glyph unicode="j" horiz-adv-x="503" d="M-289 -418l35 170q16 -4 43 -4q39 0 75 9t76 33t70.5 75t44.5 125l156 801q6 30 6 45q0 30 -37 30h-82l33 170h188q60 0 88.5 -21.5t28.5 -68.5q0 -11 -8 -61l-178 -922q-19 -100 -62.5 -174t-91.5 -113t-109 -62.5t-104 -29.5t-88 -6zM303 1239l39 207h178l-39 -207 h-178z" />
<glyph unicode="k" horiz-adv-x="1048" d="M18 0l234 1200q6 24 6 45q0 31 -37 31h-84l35 170h188q60 0 88.5 -21.5t28.5 -68.5q0 -16 -8 -62l-123 -639h90q63 0 105 45l307 336h237l-356 -387q-24 -24 -48 -43.5t-36 -27.5l-12 -7l-2 -4q26 -12 51 -78l104 -278q9 -24 27 -32.5t57 -8.5h64l-33 -170h-135 q-68 0 -96.5 18.5t-51.5 77.5l-126 344q-17 47 -91 47h-88l-96 -487h-199z" />
<glyph unicode="l" horiz-adv-x="509" d="M41 94q0 23 6 47l207 1059q6 30 6 45q0 31 -37 31h-84l33 170h188q60 0 88.5 -21.5t28.5 -68.5q0 -16 -8 -62l-207 -1061q-4 -20 -4 -32q0 -31 37 -31h84l-33 -170h-190q-115 0 -115 94z" />
<glyph unicode="m" horiz-adv-x="1912" d="M57 0l154 793q6 18 6 41q0 32 -39 32h-82l33 170h188q111 0 111 -92q0 -25 -22 -121h4q24 37 59 74.5t86 76t120 63t142 24.5q242 0 264 -238h4q57 89 169 163.5t249 74.5q134 0 202.5 -69.5t68.5 -198.5q0 -41 -15 -129l-82 -431q-4 -20 -4 -32q0 -31 35 -31h84 l-33 -170h-190q-115 0 -115 94q0 15 4 47l94 482q15 69 15 106q0 150 -140 150q-92 0 -177.5 -61.5t-140 -153t-73.5 -191.5l-92 -473h-199l121 623q13 60 13 106q0 150 -140 150q-72 0 -139.5 -36t-117.5 -95t-85.5 -131t-50.5 -146l-92 -471h-197z" />
<glyph unicode="n" horiz-adv-x="1271" d="M57 0l154 793q6 18 6 41q0 32 -39 32h-82l33 170h188q111 0 111 -92q0 -26 -25 -129h5q24 39 61 77.5t90.5 78.5t126.5 65t152 25q145 0 221 -73t76 -208q0 -43 -15 -127l-80 -420q-6 -30 -6 -32q0 -31 39 -31h82l-31 -170h-192q-115 0 -115 94q0 23 6 47l92 477 q13 76 13 103q0 158 -160 158q-100 0 -191.5 -60.5t-149.5 -150t-77 -185.5l-96 -483h-197z" />
<glyph unicode="o" horiz-adv-x="1251" d="M41 432q0 130 55 248t145 200.5t209.5 131.5t245.5 49q212 0 346 -126t134 -327q0 -175 -94 -322t-244.5 -229t-317.5 -82q-211 0 -345 127t-134 330zM244 440q0 -130 82 -211.5t213 -81.5q107 0 206.5 58t163.5 163.5t64 229.5q0 129 -81 210t-210 81 q-109 0 -209.5 -58.5t-164.5 -163t-64 -227.5z" />
<glyph unicode="p" horiz-adv-x="1234" d="M-23 -410l232 1194q6 34 6 52q0 16 -7.5 23t-27.5 7h-84l33 170h186q107 0 107 -75q0 -38 -21 -99h5q60 88 152.5 143.5t213.5 55.5q183 0 284 -114.5t101 -319.5q0 -138 -48 -261t-126.5 -207.5t-181 -134t-209.5 -49.5q-104 0 -186 47t-121 134h-4q-5 -44 -15 -97 l-92 -469h-197zM340 418q0 -119 58 -195t169 -76q70 0 138.5 33t124 91.5t90 147.5t34.5 193q0 132 -61.5 203.5t-171.5 71.5q-103 0 -192 -68t-139 -176t-50 -225z" />
<glyph unicode="q" horiz-adv-x="1232" d="M45 397q0 144 47.5 269.5t126.5 211t182.5 134.5t214.5 49q112 0 193 -45.5t117 -132.5h4q12 77 42.5 115t102.5 38h199l-33 -170h-86q-44 0 -53 -45l-240 -1231h-198l92 473q4 24 10.5 48t11.5 37l4 12h-4q-49 -76 -138.5 -130.5t-205.5 -54.5q-185 0 -287 113.5 t-102 308.5zM246 414q0 -124 63 -195.5t172 -71.5q105 0 194 70t138 179.5t49 228.5q0 115 -58.5 188.5t-172.5 73.5q-68 0 -135.5 -33t-123.5 -91.5t-91 -150t-35 -198.5z" />
<glyph unicode="r" horiz-adv-x="774" d="M57 0l158 821q1 6 1 12q0 33 -38 33h-82l33 170h190q59 0 86 -21.5t27 -66.5q0 -19 -13.5 -80t-25.5 -96h4q58 118 160.5 197.5t222.5 79.5q19 0 54 -5l-41 -196q-16 4 -54 4q-142 0 -256.5 -132.5t-150.5 -324.5l-76 -395h-199z" />
<glyph unicode="s" horiz-adv-x="921" d="M-27 152l101 131q4 -6 12.5 -16t38 -35t63 -44t86.5 -35t109 -16q90 0 147.5 39.5t57.5 104.5q0 26 -11 48t-24.5 36.5t-43 30.5t-46.5 23.5t-55 22.5q-50 20 -83.5 35t-77 43t-69.5 57.5t-44.5 74.5t-18.5 98q0 99 58 171.5t147.5 106t197.5 33.5q64 0 127.5 -13 t118.5 -39q56 -26 84 -71q20 -32 19 -69q0 -16 -3 -33l-16 -74h-174l6 39q1 6 1 13q0 36 -38 60q-45 30 -129 29q-91 0 -145 -38.5t-54 -100.5q0 -33 14.5 -58.5t45.5 -46t57 -33t71 -30.5l15 -6q49 -19 80 -33t72.5 -40.5t65.5 -54t41.5 -70t17.5 -93.5q0 -142 -116 -233 t-298 -91q-79 0 -150.5 18t-116.5 44.5t-78.5 52.5t-47.5 44z" />
<glyph unicode="t" horiz-adv-x="671" d="M86 877l31 159h139l55 285h195l-55 -285h249l-32 -159h-248l-90 -467q-8 -39 -8 -80q0 -162 178 -162l51 4l-35 -176q-29 -6 -72 -6q-40 0 -80 6.5t-86 26.5t-81 51t-58.5 85t-23.5 124q0 42 10 104l96 490h-135z" />
<glyph unicode="u" horiz-adv-x="1261" d="M82 866l33 170h190q117 0 117 -94q0 -20 -6 -47l-94 -479q-11 -60 -11 -99q0 -157 156 -157q98 0 188 59.5t147.5 148.5t76.5 185l94 483h198l-153 -792q-6 -21 -6 -41q0 -33 39 -33h79l-32 -170h-187q-110 0 -110 92q0 28 24 131h-4q-24 -39 -60.5 -78t-89.5 -79.5 t-125.5 -65.5t-150.5 -25q-143 0 -217 73t-74 208q0 53 13 129l82 418q4 20 4 33q0 30 -37 30h-84z" />
<glyph unicode="v" horiz-adv-x="1093" d="M78 866l33 170h102q55 0 85.5 -26.5t41.5 -83.5l106 -590l11 -137h4q30 82 61 137l338 596q36 63 69 83.5t101 20.5h117l-33 -170h-27q-25 0 -40.5 -9t-28.5 -32l-477 -825h-230l-155 819q-5 25 -17 36t-35 11h-26z" />
<glyph unicode="w" horiz-adv-x="1728" d="M78 866l35 170h131q105 0 116 -114l64 -613q3 -24 4 -51.5t0 -43.5v-15h4q22 57 49 110l365 723h182l84 -723l6 -110h4q20 57 47 110l304 617q33 67 65 88.5t100 21.5h140l-33 -170h-29q-26 0 -43 -8.5t-31 -32.5l-432 -825h-221l-88 666l-6 112h-4q-24 -59 -51 -112 l-342 -666h-224l-110 825q-4 23 -15.5 32t-35.5 9h-35z" />
<glyph unicode="x" horiz-adv-x="1032" d="M-76 0l463 543l-149 284q-11 23 -30.5 31t-51.5 8h-60l35 170h127q59 0 89.5 -22.5t60.5 -85.5l94 -195l22 -63h4q25 38 45 63l158 195q38 47 61 67.5t53.5 30.5t78.5 10h147l-33 -170h-59q-35 0 -56 -7t-40 -30l-265 -305l254 -524h-208l-164 336l-23 57h-4 q-16 -28 -39 -57l-280 -336h-230z" />
<glyph unicode="y" horiz-adv-x="1114" d="M-166 -328l84 142l2 -3l6.5 -6.5t9 -8.5t11.5 -10t14 -10.5t17 -10.5t19.5 -9.5t21.5 -8t24.5 -5.5t26.5 -2q114 0 204 151l74 117l-194 817q-6 24 -17.5 32.5t-38.5 8.5h-24l32 170h134q47 0 69 -24t33 -80l121 -584q4 -24 7 -55t4 -51l1 -19h4q31 72 60 125l329 584 q35 61 71.5 82.5t100.5 21.5h127l-34 -170h-25q-52 0 -74 -41l-608 -1018q-71 -118 -164 -177.5t-199 -59.5q-39 0 -77.5 10.5t-64.5 25.5t-46.5 30t-30.5 26z" />
<glyph unicode="z" horiz-adv-x="1052" d="M-41 0l25 127l651 647q24 24 52.5 50.5t44.5 40.5l16 14v4q-46 -4 -95 -4h-305q-44 0 -53 -45l-16 -82h-170l30 153q13 69 51 100t107 31h739l-22 -127l-652 -647q-26 -24 -55.5 -49.5t-46.5 -38.5l-16 -14v-4q40 4 108 4h336q45 0 55 47l15 78h170l-31 -154 q-13 -69 -51 -100t-107 -31h-780z" />
<glyph unicode="{" horiz-adv-x="659" d="M43 578l35 176q7 1 19 3t44.5 16t60 36t55 67t38.5 105l37 184q71 367 444 342l-28 -151q-28 4 -60 -2t-71 -25.5t-71 -68t-46 -119.5l-43 -226q-11 -57 -38 -104t-56.5 -72t-57.5 -42.5t-47 -22.5l-18 -6v-4q5 -2 13 -6.5t29 -22t37.5 -39t29.5 -59.5t13 -82 q0 -32 -6 -62l-43 -219q-10 -45 -10 -76q0 -40 12.5 -69.5t32 -43t43.5 -22.5t46 -8.5t40 0.5l-31 -152q-20 -4 -47 -4t-56.5 4.5t-70 21.5t-71 44.5t-52.5 78.5t-22 118q0 39 10 104l37 184q6 34 6 60q0 43 -14 75.5t-34 48.5t-40.5 26t-34.5 12z" />
<glyph unicode="|" horiz-adv-x="620" d="M231 -326v1948h175v-1948h-175z" />
<glyph unicode="}" horiz-adv-x="657" d="M-100 -199l28 154h47.5t57 14t58 35.5t51 64.5t34.5 101l49 244q11 59 37.5 107t56 74t58 44t47.5 23l18 6v4q-5 2 -13 6t-28.5 20.5t-36.5 38t-29 59t-13 81.5q0 26 6 61l39 203q8 54 8 71q0 40 -13 69.5t-32.5 43.5t-43.5 23t-46 8.5t-39 -0.5l30 151q27 6 61.5 2 t70 -11t69.5 -28.5t60.5 -49.5t42.5 -74t16 -103q0 -47 -12 -102l-31 -164q-6 -35 -6 -59q0 -31 7.5 -57t19.5 -42.5t26.5 -29.5t29.5 -19t27 -10t20 -5l7 -1l-35 -176q-7 -1 -19 -3.5t-44.5 -16.5t-60 -36t-55 -67.5t-38.5 -104.5l-41 -205q-18 -93 -56.5 -161t-83 -104 t-102 -56t-104.5 -23.5t-100 0.5z" />
<glyph unicode="~" horiz-adv-x="1177" d="M98 418q0 174 74.5 260t210.5 86q60 0 108 -20.5t80 -50t61 -59.5t65 -50.5t79 -20.5q39 0 67 17.5t42.5 47t21 61.5t6.5 67h162q0 -175 -74.5 -260.5t-212.5 -85.5q-59 0 -107 20.5t-79.5 49.5t-60.5 58t-65 49.5t-79 20.5q-38 0 -66 -17.5t-42.5 -46.5t-21.5 -60.5 t-7 -65.5h-162z" />
<glyph unicode="&#xa2;" horiz-adv-x="1181" d="M117 602q0 127 43 249t116.5 217t178 157.5t221.5 72.5l33 172h145l-35 -180q56 -10 103.5 -32.5t79.5 -50.5t57 -59.5t39 -60.5t23.5 -53t12.5 -38l3 -15l-179 -68q-1 8 -4.5 21.5t-20 48.5t-40 61.5t-69.5 48t-105 21.5q-112 0 -203.5 -69.5t-142.5 -186t-51 -252.5 q0 -127 62 -199.5t183 -72.5q57 0 111 20.5t90 49.5t63.5 58t40.5 50l13 20l170 -71q-6 -12 -17.5 -32t-54 -72t-91 -93t-128.5 -78t-168 -43l-33 -168h-145l35 179q-155 31 -245.5 148t-90.5 300z" />
<glyph unicode="&#xa3;" horiz-adv-x="1181" d="M-18 0l34 176h123l92 477h-96l27 144h96l57 293q33 164 170.5 272t321.5 108q61 0 118.5 -14.5t95.5 -35t67.5 -40.5t43.5 -34l13 -15l-129 -125q-3 3 -9.5 8.5t-27.5 20t-44.5 25t-59 19.5t-72.5 9q-111 0 -189 -63.5t-96 -157.5l-55 -270h377l-27 -144h-377l-92 -477 h442q45 0 54 45l18 92h186l-34 -182q-12 -68 -50 -99.5t-108 -31.5h-870z" />
<glyph unicode="&#xa5;" horiz-adv-x="1263" d="M162 418l24 129h332l17 84l-39 90h-281l27 129h194l-153 369q-19 51 -72 51h-47l33 176h92q66 0 99.5 -22.5t62.5 -88.5l153 -362q14 -33 28.5 -74t21.5 -65l8 -25h4q59 90 114 164l289 362q50 66 92 88.5t107 22.5h123l-33 -176h-47q-54 0 -90 -47l-301 -373h188 l-27 -129h-268l-74 -90l-16 -84h324l-23 -129h-328l-82 -418h-204l82 418h-330z" />
<glyph unicode="&#xa8;" horiz-adv-x="1026" d="M270 1599l41 207h150l-41 -207h-150zM606 1599l41 207h152l-41 -207h-152z" />
<glyph unicode="&#xa9;" horiz-adv-x="1669" d="M127 723q0 153 57.5 291.5t155 238.5t232 158.5t282.5 58.5q202 0 371 -99.5t266.5 -271t97.5 -376.5q0 -153 -57.5 -291.5t-155.5 -238.5t-234.5 -159t-287.5 -59q-197 0 -364.5 99.5t-265 272t-97.5 376.5zM276 723q0 -169 76 -309t209 -220.5t293 -80.5 q122 0 231 47.5t187 129t123 194.5t45 239t-45 239t-123 194.5t-187 129t-231 47.5q-160 0 -293 -80.5t-209 -220.5t-76 -309zM467 721q0 81 28.5 155t79.5 130.5t128 90t167 33.5q65 0 123.5 -21t95 -50.5t63.5 -59t38 -50.5l12 -21l-123 -68q-3 5 -8.5 14t-25 31t-41 39 t-57 31t-73.5 14q-117 0 -185 -77.5t-68 -190.5q0 -114 66.5 -191t186.5 -77q38 0 73.5 13.5t58.5 32.5t40 37.5t25 31.5l8 14l123 -68q-4 -8 -12 -22t-37.5 -49t-64.5 -61.5t-94 -48.5t-124 -22q-91 0 -168 33.5t-128 90t-79 130.5t-28 156z" />
<glyph unicode="&#xab;" horiz-adv-x="1136" d="M80 582l393 417h209l-412 -430l262 -411h-188zM487 582l426 417h211l-446 -430l262 -411h-188z" />
<glyph unicode="&#xad;" horiz-adv-x="841" d="M100 496l33 176h598l-35 -176h-596z" />
<glyph unicode="&#xae;" horiz-adv-x="1669" d="M127 723q0 153 57.5 291.5t155 238.5t232 158.5t282.5 58.5q202 0 371 -99.5t266.5 -271t97.5 -376.5q0 -153 -57.5 -291.5t-155.5 -238.5t-234.5 -159t-287.5 -59q-197 0 -364.5 99.5t-265 272t-97.5 376.5zM276 723q0 -169 76 -309t209 -220.5t293 -80.5 q122 0 231 47.5t187 129t123 194.5t45 239t-45 239t-123 194.5t-187 129t-231 47.5q-160 0 -293 -80.5t-209 -220.5t-76 -309zM604 340v774h297q110 0 177 -65t67 -172q0 -82 -43.5 -136.5t-97.5 -68.5v-4q8 -8 26 -43l148 -285h-158l-143 299h-127v-299h-146zM750 745h122 q58 0 91.5 35t33.5 97q0 59 -32.5 91.5t-90.5 32.5h-124v-256z" />
<glyph unicode="&#xb4;" horiz-adv-x="792" d="M215 1546l199 260h207l-244 -260h-162z" />
<glyph unicode="&#xb8;" horiz-adv-x="851" d="M186 -412l23 121q39 -14 84 -14q46 0 78 17.5t32 58.5q0 26 -26 39.5t-70 13.5l-35 -4l101 227l96 -22l-2 -15l-47 -112q48 -8 84.5 -42.5t36.5 -88.5q0 -50 -22.5 -89t-58.5 -60t-75.5 -31.5t-79.5 -10.5q-32 0 -62 3t-43 6z" />
<glyph unicode="&#xbb;" horiz-adv-x="1144" d="M10 158l434 426l-258 415h195l258 -419l-422 -422h-207zM444 158l414 426l-258 415h195l260 -419l-406 -422h-205z" />
<glyph unicode="&#x2c6;" horiz-adv-x="993" d="M195 1546l229 260h182l131 -260h-157l-74 164h-4l-140 -164h-167z" />
<glyph unicode="&#x2da;" horiz-adv-x="778" d="M217 1653q0 78 59.5 127t133.5 49q64 0 108.5 -36.5t44.5 -98.5q0 -75 -60 -124.5t-134 -49.5q-64 0 -108 36.5t-44 96.5zM319 1657q0 -25 15 -39t41 -14q37 0 61.5 25t24.5 63q0 25 -15.5 40t-42.5 15q-33 0 -58.5 -25.5t-25.5 -64.5z" />
<glyph unicode="&#x2dc;" horiz-adv-x="1062" d="M164 1548q45 260 248 260q43 0 75.5 -14.5t51.5 -35t36 -40.5t37.5 -34.5t46.5 -14.5q43 0 70.5 40t38.5 93h135q-25 -135 -90 -197.5t-158 -62.5q-43 0 -76 14.5t-52.5 35t-36.5 40.5t-37.5 34.5t-46.5 14.5q-42 0 -70.5 -40t-38.5 -93h-133z" />
<glyph unicode="&#x400;" horiz-adv-x="1169" d="M106 92q0 19 11 76l215 1102h-133l34 176h838q121 0 121 -92q0 -29 -10 -74l-29 -147h-186l12 57q6 35 6 49q0 31 -41 31h-407l-88 -453h505l-34 -176h-506l-76 -387q-6 -27 -6 -47q0 -31 37 -31h422q46 0 55 45l18 92h187l-37 -186q-12 -69 -48 -98t-102 -29h-639 q-119 0 -119 92zM618 1806h193l104 -260h-147z" />
<glyph unicode="&#x401;" horiz-adv-x="1169" d="M106 92q0 19 11 76l215 1102h-133l34 176h838q121 0 121 -92q0 -29 -10 -74l-29 -147h-186l12 57q6 35 6 49q0 31 -41 31h-407l-88 -453h505l-34 -176h-506l-76 -387q-6 -27 -6 -47q0 -31 37 -31h422q46 0 55 45l18 92h187l-37 -186q-12 -69 -48 -98t-102 -29h-639 q-119 0 -119 92zM565 1599l41 207h150l-41 -207h-150zM901 1599l41 207h152l-41 -207h-152z" />
<glyph unicode="&#x402;" horiz-adv-x="1523" d="M123 1133l37 190q14 69 46 96t101 27h993l-30 -168h-469l-80 -406l-14 -65h4q53 26 149.5 53t200.5 27q197 0 300 -103t103 -270q0 -103 -40 -200t-110.5 -172.5t-175 -121t-225.5 -45.5q-74 0 -102 7l33 170q1 0 13 -1t28 -2.5t28 -1.5q65 0 127.5 26t111 70.5t78.5 110 t30 140.5q0 213 -246 213q-80 0 -165 -21.5t-130 -43.5l-45 -21l-123 -621h-205l250 1278h-229q-46 0 -54 -45l-20 -100h-170z" />
<glyph unicode="&#x403;" horiz-adv-x="1052" d="M82 0l248 1270h-133l36 176h820q62 0 88 -23.5t26 -68.5q0 -6 -10 -74l-29 -147h-182l10 57q9 45 9 49q0 31 -43 31h-387l-248 -1270h-205zM655 1546l199 260h207l-244 -260h-162z" />
<glyph unicode="&#x404;" horiz-adv-x="1427" d="M82 596q0 166 69 325.5t185.5 280t280 194.5t341.5 74q76 0 159 -17t159.5 -49t126 -87t49.5 -123q0 -17 -4 -37l-25 -131h-188l10 49q8 46 8 51q0 50 -52 88t-123 55t-144 17q-208 0 -376.5 -139t-231.5 -348h753l-32 -166h-750q-18 -210 100 -341.5t336 -131.5 q126 0 253 50.5t228 135.5l89 -151q-111 -97 -274.5 -158.5t-321.5 -61.5q-189 0 -332.5 81t-218 221.5t-74.5 318.5z" />
<glyph unicode="&#x405;" horiz-adv-x="1081" d="M-14 186l131 142q5 -7 14.5 -18t41.5 -39.5t68.5 -50.5t95 -40t120.5 -18q131 0 216 69.5t85 174.5q0 57 -32 102.5t-83 76.5t-113 60t-124 63.5t-113 76.5t-83 108.5t-32 150.5q0 187 148 306.5t364 119.5q95 0 182.5 -23t150 -76t62.5 -126q0 -25 -8 -61l-20 -99h-183 l9 48q6 21 6 43q0 52 -59 80t-146 28q-140 0 -218.5 -66t-78.5 -161q0 -54 32 -95.5t83 -70.5t113 -56.5t124 -62t113 -77t83 -111t32 -156.5q0 -195 -142 -324t-370 -129q-65 0 -126 11.5t-106.5 30t-85.5 41t-67 45.5t-46.5 41.5t-28.5 29.5z" />
<glyph unicode="&#x406;" horiz-adv-x="647" d="M-31 0l35 176h139l213 1094h-141l35 176h477l-35 -176h-139l-213 -1094h139l-35 -176h-475z" />
<glyph unicode="&#x407;" horiz-adv-x="645" d="M-33 0l35 176h137l213 1094h-139l35 176h475l-33 -176h-141l-213 -1094h141l-35 -176h-475zM272 1599l39 207h152l-41 -207h-150zM608 1599l41 207h150l-39 -207h-152z" />
<glyph unicode="&#x408;" horiz-adv-x="1042" d="M-16 311q0 45 10 113l10 63h205l-10 -55q-9 -70 -9 -84q0 -93 52.5 -136.5t132.5 -43.5q96 0 173 62.5t103 193.5l150 768q6 30 6 47q0 31 -41 31h-350l35 176h460q121 0 121 -92q0 -4 -10 -72l-172 -885q-17 -90 -53.5 -163t-83.5 -120.5t-105.5 -79.5t-117.5 -45.5 t-121 -13.5q-105 0 -191 36.5t-140 114.5t-54 185z" />
<glyph unicode="&#x409;" horiz-adv-x="1910" d="M-94 -14l35 188q179 27 294 244t199 653l41 199h-135l33 176h801q58 0 85 -21t27 -65q0 -21 -6 -45l-90 -465h231q82 0 156 -20.5t135.5 -62t98 -112.5t36.5 -163q0 -152 -75 -265.5t-198.5 -170t-275.5 -56.5h-348q-57 0 -82.5 20.5t-25.5 65.5q0 29 4 45l207 1059 q8 50 8 51q0 29 -39 29h-344l-41 -199q-28 -143 -55.5 -257.5t-64.5 -227.5t-78.5 -198.5t-96 -160.5t-118 -124.5t-144 -80t-174.5 -36.5zM1065 203q0 -14 10.5 -22.5t28.5 -8.5h217q137 0 227 86.5t90 226.5q0 89 -60.5 141t-166.5 52h-254l-84 -428q-8 -40 -8 -47z" />
<glyph unicode="&#x40a;" horiz-adv-x="2052" d="M84 0l229 1182q11 53 11 55q0 33 -37 33h-88l34 176h207q111 0 111 -84q0 -26 -6 -47l-92 -465h671l119 596h205l-119 -596h250q83 0 155.5 -21.5t130.5 -63.5t92 -112t34 -161q0 -149 -77.5 -262.5t-203.5 -171.5t-278 -58h-340q-59 0 -85 21.5t-26 72.5q0 10 6 37 l105 547h-672l-131 -678h-205zM1206 205q0 -33 37 -33h223q132 0 225 91t93 214q0 95 -59.5 148t-168.5 53h-260l-79 -418z" />
<glyph unicode="&#x40b;" horiz-adv-x="1585" d="M123 1133l37 190q13 70 46 96.5t101 26.5h993l-30 -168h-469l-82 -416l-17 -65h5q175 92 364 92q182 0 272.5 -81.5t90.5 -223.5q0 -42 -11 -117l-41 -207q-10 -49 -10 -57q0 -27 39 -27h88l-35 -176h-207q-57 0 -82.5 21t-25.5 67q0 27 4 43l57 293q11 64 11 94 q0 187 -207 187q-98 0 -194 -32.5t-150 -70.5l-119 -602h-205l250 1278h-229q-46 0 -54 -45l-20 -100h-170z" />
<glyph unicode="&#x40c;" d="M84 0l231 1186q1 8 3.5 20t4 19.5t1.5 11.5q0 33 -41 33h-84l34 176h195q119 0 119 -92q0 -38 -8 -74l-86 -442h137q81 0 119 49l430 559h239l-467 -600q-24 -30 -48.5 -53.5t-36.5 -32.5l-13 -8v-4q31 -28 51 -91l133 -432q17 -49 78 -49h66l-37 -176h-131 q-68 0 -103.5 25.5t-54.5 83.5l-153 501q-8 30 -34.5 41t-76.5 11h-133l-129 -662h-205zM745 1546l199 260h207l-244 -260h-162z" />
<glyph unicode="&#x40d;" horiz-adv-x="1562" d="M84 0l238 1225q9 45 -35 45h-88l34 176h207q69 0 94 -31t11 -100l-156 -793q-6 -36 -19 -88t-22 -86l-10 -33h4q90 133 156 209l811 922h215l-240 -1225q-6 -45 37 -45h88l-35 -176h-205q-69 0 -94 31t-12 100l154 795q7 36 21 88.5t24 87.5l10 35h-4q-86 -133 -152 -211 l-817 -926h-215zM756 1806h192l105 -260h-148z" />
<glyph unicode="&#x40e;" d="M41 78l111 147q71 -67 151 -67q62 0 106 39t91 120l-269 908q-8 25 -20.5 35t-38.5 10h-43l35 176h98q70 0 98.5 -24t47.5 -95l176 -625q10 -36 21 -81t17 -72l5 -27h4q37 80 92 180l348 625q40 72 77.5 95.5t113.5 23.5h124l-34 -176h-33q-29 0 -45 -9t-31 -34 l-573 -996q-68 -119 -153.5 -187.5t-203.5 -68.5q-74 0 -149 29t-123 74zM522 1729q0 32 10 77h162q-10 -27 -10 -55q0 -50 33 -79.5t88 -29.5q66 0 115.5 39t60.5 125h158q-12 -80 -45.5 -138.5t-82.5 -91.5t-102.5 -48t-113.5 -15q-117 0 -195 61t-78 155z" />
<glyph unicode="&#x40f;" horiz-adv-x="1515" d="M106 88q0 21 7 49l200 1047q11 46 11 53q0 33 -39 33h-88l36 176h207q57 0 83 -21t26 -65q0 -13 -4 -45l-205 -1051q-10 -48 -10 -55q0 -33 39 -33h612q44 0 53 45l213 1094q13 69 51 100t107 31h207l-35 -176h-88q-44 0 -53 -45l-213 -1094q-13 -69 -50.5 -100 t-105.5 -31h-334l-55 -287h-184l55 287h-332q-58 0 -84.5 21t-26.5 67z" />
<glyph unicode="&#x410;" horiz-adv-x="1359" d="M-94 0l35 176h36q26 0 40.5 9t27.5 36l692 1225h215l215 -1229q4 -25 14.5 -33t35.5 -8h36l-34 -176h-123q-66 0 -92 24t-37 95l-52 297h-530l-168 -297q-39 -71 -73 -95t-99 -24h-139zM467 588h432l-74 442q-4 32 -8 82.5t-6 84.5l-2 34h-4q-55 -129 -96 -201z" />
<glyph unicode="&#x411;" horiz-adv-x="1218" d="M106 96q0 6 13 86l213 1088h-133l34 176h846q109 0 109 -90q0 -17 -4 -41l-35 -182h-188l14 73q4 20 4 31q0 33 -37 33h-405l-82 -418h254q68 0 129.5 -12t117 -39t96 -67t64 -100.5t23.5 -135.5q0 -149 -80.5 -264.5t-208.5 -174.5t-277 -59h-358q-57 0 -83 22.5 t-26 73.5zM330 203q0 -31 37 -31h233q136 0 231 88.5t95 220.5q0 97 -59.5 148t-166.5 51h-278l-82 -414q-10 -52 -10 -63z" />
<glyph unicode="&#x412;" horiz-adv-x="1247" d="M106 92q0 19 11 76l215 1102h-133l34 176h605q169 0 268.5 -82.5t99.5 -228.5q0 -126 -73.5 -226.5t-180.5 -144.5v-4q85 -35 135 -111t50 -186q0 -159 -98.5 -276.5t-241.5 -161.5q-82 -25 -181 -25h-391q-119 0 -119 92zM332 207q0 -31 37 -31h262q61 0 108 19 q84 31 135.5 106t51.5 168q0 98 -56.5 149.5t-156.5 51.5h-293l-82 -416q-6 -27 -6 -47zM453 838h290q106 0 180 76.5t74 183.5q0 81 -47 126.5t-139 45.5h-274z" />
<glyph unicode="&#x413;" horiz-adv-x="1052" d="M82 0l248 1270h-133l36 176h820q62 0 88 -23.5t26 -68.5q0 -6 -10 -74l-29 -147h-182l10 57q9 45 9 49q0 31 -43 31h-387l-248 -1270h-205z" />
<glyph unicode="&#x414;" horiz-adv-x="1490" d="M-143 -287l65 336q13 69 48.5 98t103.5 29h32q89 101 159 223t117.5 254t77.5 245.5t56 248.5l23 123h-129l34 176h844q63 0 89 -23t26 -67q0 -22 -8 -76l-215 -1104h47q57 0 81.5 -21t24.5 -61q0 -22 -12 -80l-59 -301h-187l41 207q8 40 8 49q0 31 -34 31h-949 q-42 0 -51 -45l-47 -242h-186zM332 176h643l196 1010q9 52 9 53q0 31 -41 31h-404l-24 -133q-125 -648 -379 -961z" />
<glyph unicode="&#x415;" horiz-adv-x="1169" d="M106 92q0 19 11 76l215 1102h-133l34 176h838q121 0 121 -92q0 -29 -10 -74l-29 -147h-186l12 57q6 35 6 49q0 31 -41 31h-407l-88 -453h505l-34 -176h-506l-76 -387q-6 -27 -6 -47q0 -31 37 -31h422q46 0 55 45l18 92h187l-37 -186q-12 -69 -48 -98t-102 -29h-639 q-119 0 -119 92z" />
<glyph unicode="&#x416;" horiz-adv-x="1816" d="M-100 0l512 664q25 32 52.5 56t42.5 32l15 8v4q-4 1 -11 5.5t-24 26.5t-30 56l-135 371q-10 29 -31.5 38t-63.5 9h-34l34 176h90q85 0 116 -20t56 -89l162 -446q12 -35 38 -46t75 -11h92l119 612h196l-118 -612h71q50 0 82.5 11t59.5 46l325 446q50 68 94 88.5t130 20.5 h104l-33 -176h-33q-40 0 -64 -9t-46 -38l-283 -379q-24 -34 -51 -57.5t-42 -30.5l-15 -6v-5q5 -2 13 -8t27 -30t31 -56l256 -651h-213l-233 608q-14 37 -38.5 48.5t-68.5 11.5h-106l-131 -668h-197l131 668h-94q-44 0 -72 -11.5t-57 -48.5l-465 -608h-235z" />
<glyph unicode="&#x417;" horiz-adv-x="1085" d="M-31 168l125 137q49 -65 130.5 -106t183.5 -41q147 0 252.5 83.5t105.5 213.5q0 96 -63.5 145t-172.5 49h-192l33 168h159q119 0 215.5 79t96.5 198q0 89 -54.5 142.5t-166.5 53.5q-94 0 -166 -40.5t-84 -98.5l-11 -59h-188l23 112q11 58 46 105t82 76.5t106 49 t114.5 27.5t109.5 8q177 0 289.5 -91t112.5 -251q0 -135 -77 -233.5t-202 -144.5v-5q90 -33 143.5 -105t53.5 -181q0 -105 -46.5 -197t-123.5 -154t-178 -97.5t-209 -35.5q-132 0 -253.5 50t-193.5 143z" />
<glyph unicode="&#x418;" horiz-adv-x="1562" d="M84 0l238 1225q9 45 -35 45h-88l34 176h207q69 0 94 -31t11 -100l-156 -793q-6 -36 -19 -88t-22 -86l-10 -33h4q90 133 156 209l811 922h215l-240 -1225q-6 -45 37 -45h88l-35 -176h-205q-69 0 -94 31t-12 100l154 795q7 36 21 88.5t24 87.5l10 35h-4q-86 -133 -152 -211 l-817 -926h-215z" />
<glyph unicode="&#x419;" horiz-adv-x="1562" d="M84 0l238 1225q9 45 -35 45h-88l34 176h207q69 0 94 -31t11 -100l-156 -793q-6 -36 -19 -88t-22 -86l-10 -33h4q90 133 156 209l811 922h215l-240 -1225q-6 -45 37 -45h88l-35 -176h-205q-69 0 -94 31t-12 100l154 795q7 36 21 88.5t24 87.5l10 35h-4q-86 -133 -152 -211 l-817 -926h-215zM696 1729q0 27 11 77h161q-10 -27 -10 -55q0 -50 33 -79.5t88 -29.5q66 0 115.5 39t60.5 125h158q-12 -80 -45.5 -138.5t-82.5 -91.5t-102.5 -48t-113.5 -15q-117 0 -195 61t-78 155z" />
<glyph unicode="&#x41a;" d="M84 0l231 1186q1 8 3.5 20t4 19.5t1.5 11.5q0 33 -41 33h-84l34 176h195q119 0 119 -92q0 -38 -8 -74l-86 -442h137q81 0 119 49l430 559h239l-467 -600q-24 -30 -48.5 -53.5t-36.5 -32.5l-13 -8v-4q31 -28 51 -91l133 -432q17 -49 78 -49h66l-37 -176h-131 q-68 0 -103.5 25.5t-54.5 83.5l-153 501q-8 30 -34.5 41t-76.5 11h-133l-129 -662h-205z" />
<glyph unicode="&#x41b;" horiz-adv-x="1394" d="M-102 -16l36 186q179 24 301 255.5t209 682.5l31 162h-135l35 176h850q110 0 110 -84q0 -25 -12 -86l-197 -1014q-10 -42 -10 -55q0 -14 10.5 -22.5t28.5 -8.5h88l-35 -176h-207q-57 0 -83.5 21t-26.5 65q0 12 12 86l199 1012q8 39 8 55q0 31 -39 31h-399l-31 -162 q-41 -215 -88.5 -381.5t-111.5 -306.5t-141.5 -232t-178.5 -145t-223 -59z" />
<glyph unicode="&#x41c;" horiz-adv-x="1765" d="M-72 0l33 176h68q43 0 55 45l336 1225h205l190 -768l35 -182h4q54 98 107 182l489 768h219l-135 -1190q-4 -36 -4 -49q0 -31 35 -31h69l-35 -176h-167q-66 0 -94.5 23t-28.5 77q0 8 6 56l86 739q4 38 13.5 91.5t16.5 87.5l7 34h-4q-70 -139 -119 -213l-416 -635h-172 l-168 635q-8 34 -17.5 87.5t-14.5 90.5l-5 37h-4q-22 -131 -45 -215l-209 -772q-19 -66 -51.5 -94.5t-95.5 -28.5h-189z" />
<glyph unicode="&#x41d;" horiz-adv-x="1550" d="M84 0l231 1186q9 52 9 53q0 31 -41 31h-84l34 176h195q119 0 119 -92q0 -38 -8 -74l-95 -469h738l100 510q13 69 48.5 97t101.5 28h213l-35 -176h-92q-42 0 -50 -45l-239 -1225h-205l123 635h-735l-123 -635h-205z" />
<glyph unicode="&#x41e;" horiz-adv-x="1628" d="M82 606q0 137 47 268.5t131.5 238t194 187.5t242 125.5t268.5 44.5q184 0 327.5 -78.5t222 -219t78.5 -318.5q0 -174 -74 -337t-195 -281t-283 -189.5t-330 -71.5q-278 0 -453.5 177t-175.5 454zM295 614q0 -197 121 -321.5t313 -124.5q120 0 238 54.5t209 144.5 t147.5 215.5t56.5 259.5q0 195 -120.5 316.5t-311.5 121.5q-122 0 -241 -53t-209.5 -141.5t-146.5 -213t-56 -258.5z" />
<glyph unicode="&#x41f;" horiz-adv-x="1525" d="M82 0l248 1270h-133l36 176h1123q56 0 83 -20.5t27 -65.5q0 -3 -12 -78l-201 -1030q-1 -7 -3.5 -23t-2.5 -22q0 -31 37 -31h88l-35 -176h-202q-113 0 -113 84q0 28 10 76l201 1032q8 40 8 49q0 29 -37 29h-669l-248 -1270h-205z" />
<glyph unicode="&#x420;" horiz-adv-x="1204" d="M82 0l248 1270h-133l36 176h617q177 0 286 -101t109 -278q0 -159 -86 -286.5t-213 -190.5q-113 -55 -239 -55h-316l-104 -535h-205zM426 711h266q141 0 241.5 95.5t100.5 242.5q0 111 -60.5 166t-170.5 55h-268z" />
<glyph unicode="&#x421;" horiz-adv-x="1419" d="M84 604q0 165 66.5 322.5t179 277.5t273 193t337.5 73q83 0 167.5 -16.5t160.5 -49t124 -89t48 -127.5q0 -30 -13 -90l-16 -82h-186l16 78q10 50 -19.5 88t-81.5 58t-105 30t-101 10q-124 0 -241 -52t-204.5 -140.5t-140.5 -212.5t-53 -261q0 -200 117.5 -323t320.5 -123 q130 0 254.5 45.5t216.5 128.5l92 -160q-104 -96 -262 -151.5t-323 -55.5q-276 0 -451.5 176.5t-175.5 452.5z" />
<glyph unicode="&#x422;" horiz-adv-x="1286" d="M127 1133l37 196q12 66 41.5 91.5t95.5 25.5h989q64 0 89.5 -23.5t25.5 -68.5q0 -29 -10 -74l-27 -147h-184l12 57q8 40 8 49q0 31 -43 31h-284l-248 -1270h-205l248 1270h-291q-44 0 -53 -45l-19 -92h-182z" />
<glyph unicode="&#x423;" d="M41 78l111 147q71 -67 151 -67q62 0 106 39t91 120l-269 908q-8 25 -20.5 35t-38.5 10h-43l35 176h98q70 0 98.5 -24t47.5 -95l176 -625q10 -36 21 -81t17 -72l5 -27h4q37 80 92 180l348 625q40 72 77.5 95.5t113.5 23.5h124l-34 -176h-33q-29 0 -45 -9t-31 -34 l-573 -996q-68 -119 -153.5 -187.5t-203.5 -68.5q-74 0 -149 29t-123 74z" />
<glyph unicode="&#x424;" horiz-adv-x="1673" d="M82 664q0 206 106 367t288 248.5t409 90.5l33 166h202l-35 -166q256 0 412 -136t156 -364q0 -154 -63.5 -287t-172 -225t-255 -144.5t-310.5 -53.5l-37 -185h-203l37 185q-256 0 -411.5 137.5t-155.5 366.5zM289 670q0 -158 104.5 -247t288.5 -89l168 862 q-152 -2 -278.5 -65t-204.5 -184t-78 -277zM885 334q112 1 214 40t179 107t122.5 168.5t45.5 216.5q0 156 -105 243t-290 87z" />
<glyph unicode="&#x425;" horiz-adv-x="1216" d="M-88 0l602 752l-205 467q-21 51 -86 51h-51l35 176h112q70 0 106.5 -23t63.5 -88l113 -268l62 -168h4q59 88 120 168l213 268q50 64 91.5 87.5t109.5 23.5h139l-34 -176h-50q-34 0 -57.5 -10.5t-46.5 -40.5l-395 -482l321 -737h-223l-184 432q-14 31 -29.5 70.5 t-24.5 63.5l-8 24h-4q-53 -78 -119 -158l-342 -432h-233z" />
<glyph unicode="&#x426;" horiz-adv-x="1540" d="M106 84q0 30 11 76l200 1036q7 42 7 43q0 31 -39 31h-88l36 176h207q57 0 83 -21t26 -65q0 -29 -10 -74l-201 -1034q-8 -36 -8 -47q0 -12 10.5 -20.5t28.5 -8.5h659l248 1270h205l-248 -1270h41q57 0 82.5 -19.5t25.5 -62.5q0 -16 -10 -74l-59 -307h-185l41 213 q9 27 9 45q0 13 -9 21t-26 8h-926q-111 0 -111 84z" />
<glyph unicode="&#x427;" horiz-adv-x="1323" d="M145 1270l35 176h207q56 0 82.5 -20.5t26.5 -65.5q0 -13 -4 -45l-58 -295q-8 -44 -8 -88q0 -97 58 -145t182 -48q154 0 331 109l117 598h205l-285 -1446h-205l115 582l17 67h-5q-71 -38 -168 -66t-198 -28q-379 0 -379 307q0 54 12 119l43 219q4 28 4 37q0 33 -37 33h-88 z" />
<glyph unicode="&#x428;" horiz-adv-x="2078" d="M106 88q0 28 9 68l204 1056q5 20 5 25q0 33 -37 33h-88l34 176h207q56 0 83.5 -20.5t27.5 -65.5q0 -17 -8 -57l-205 -1057q-1 -4 -3 -12.5t-3.5 -15t-1.5 -9.5q0 -33 39 -33h483l250 1270h205l-250 -1270h487q44 0 53 45l213 1094q13 69 51 100t107 31h207l-35 -176h-88 q-44 0 -53 -45l-213 -1094q-13 -69 -51 -100t-107 -31h-1413q-57 0 -83 21t-26 67z" />
<glyph unicode="&#x429;" horiz-adv-x="2109" d="M106 88q0 28 9 68l204 1056q5 20 5 25q0 33 -37 33h-88l34 176h207q56 0 83.5 -20.5t27.5 -65.5q0 -17 -8 -57l-205 -1057q-1 -4 -3 -12.5t-3.5 -15t-1.5 -9.5q0 -33 39 -33h485l248 1270h205l-248 -1270h530l246 1270h205l-246 -1270h57q57 0 82 -19.5t25 -62.5 q0 -29 -8 -69l-62 -314h-182l39 201q1 8 5.5 31t4.5 28q0 12 -10 20.5t-25 8.5h-1503q-58 0 -84.5 21t-26.5 67z" />
<glyph unicode="&#x42a;" horiz-adv-x="1486" d="M121 1133l37 190q14 69 46 96t101 27h688l-35 -176h-133l-71 -377h278q177 0 287.5 -96.5t110.5 -278.5q0 -128 -49 -229.5t-131.5 -163t-184 -93.5t-213.5 -32h-348q-57 0 -84 21t-27 67q0 19 6 43l222 1139h-244q-46 0 -55 -45l-17 -92h-184zM618 207q0 -31 39 -31h226 q141 0 238.5 90.5t97.5 243.5q0 100 -59.5 153.5t-166.5 53.5h-274l-92 -465q-2 -10 -4 -20.5t-3.5 -16.5t-1.5 -8z" />
<glyph unicode="&#x42b;" horiz-adv-x="1753" d="M104 88q0 18 7 43l202 1053q11 50 11 57q0 29 -39 29h-88l36 176h205q58 0 84.5 -20.5t26.5 -65.5q0 -21 -6 -45l-80 -414h266q179 0 288 -94t109 -277q0 -157 -77 -279t-206 -186.5t-286 -64.5h-342q-58 0 -84.5 21t-26.5 67zM330 209q0 -33 37 -33h223 q136 0 230.5 93.5t94.5 248.5q0 100 -56.5 153.5t-160.5 53.5h-268l-90 -467q-10 -45 -10 -49zM1249 88q0 19 6 43l256 1315h205l-235 -1202q-6 -27 -6 -37q0 -31 36 -31h88l-34 -176h-205q-57 0 -84 21t-27 67z" />
<glyph unicode="&#x42c;" horiz-adv-x="1185" d="M104 88q0 18 7 43l202 1053q11 50 11 57q0 29 -39 29h-88l36 176h205q58 0 84.5 -20.5t26.5 -65.5q0 -21 -6 -45l-80 -414h266q179 0 288 -94t109 -277q0 -157 -77 -279t-206 -186.5t-286 -64.5h-342q-58 0 -84.5 21t-26.5 67zM330 209q0 -33 37 -33h223 q136 0 230.5 93.5t94.5 248.5q0 100 -56.5 153.5t-160.5 53.5h-268l-90 -467q-10 -45 -10 -49z" />
<glyph unicode="&#x42d;" horiz-adv-x="1427" d="M-14 199l116 137q63 -79 179 -127.5t243 -48.5q139 0 267.5 62.5t221 171t132.5 243.5h-754l31 168h760q12 134 -32.5 242t-146.5 173.5t-247 65.5q-79 0 -163 -19t-153 -61.5t-80 -99.5l-16 -80h-188l26 131q15 73 72.5 134t139.5 99t177.5 59t190.5 21q145 0 265 -48.5 t199 -133t122 -199t43 -245.5q0 -175 -70.5 -336.5t-188 -277.5t-277.5 -185.5t-333 -69.5q-158 0 -301 57t-235 167z" />
<glyph unicode="&#x42e;" horiz-adv-x="2168" d="M84 0l231 1194q9 40 9 45q0 31 -37 31h-88l34 176h207q56 0 83.5 -20.5t27.5 -65.5q0 -21 -6 -45l-99 -504h244q47 184 171.5 335t300 237.5t364.5 86.5q270 0 439 -172.5t169 -443.5q0 -116 -33 -229.5t-91 -209.5t-140 -178.5t-176.5 -139.5t-203 -89.5t-218.5 -32.5 q-143 0 -260 52t-194 141.5t-116.5 209.5t-35.5 257h-254l-123 -635h-205zM877 614q0 -197 114.5 -321.5t298.5 -124.5q116 0 231 54.5t203 144.5t142.5 215.5t54.5 259.5q0 195 -115 316.5t-299 121.5q-117 0 -231.5 -53t-202.5 -141.5t-142 -213t-54 -258.5z" />
<glyph unicode="&#x42f;" horiz-adv-x="1277" d="M-74 0l35 176h25q41 0 66 9t48 38l242 307q18 24 39 43.5t33 26.5l12 8v4q-26 10 -50 23.5t-58 42t-58 63t-41.5 89t-17.5 118.5q0 109 44.5 203.5t118.5 158t171.5 100t203.5 36.5h635l-33 -176h-133l-250 -1270h-204l108 555h-166q-59 0 -88 -15.5t-71 -70.5l-279 -360 q-53 -67 -96 -88t-127 -21h-109zM412 956q0 -110 63 -167.5t168 -57.5h254l107 539h-256q-140 0 -238 -88t-98 -226z" />
<glyph unicode="&#x430;" horiz-adv-x="1083" d="M-8 248q0 87 40.5 156.5t107 113.5t158 73.5t187.5 41.5t201 12h51l4 25q9 44 9 80q0 153 -185 153q-68 0 -127.5 -18t-66.5 -62l-11 -59h-188l21 104q10 53 50.5 92t99 60t120.5 31t127 10q182 0 270 -77t88 -216q0 -46 -14 -121l-76 -403q-8 -28 -8 -43q0 -31 37 -31 h86l-35 -170h-174q-58 0 -85.5 22.5t-27.5 61.5q0 44 21 113h-4q2 0 -13 -23t-46 -55.5t-73.5 -65t-107 -55.5t-135.5 -23q-129 0 -215 70.5t-86 202.5zM193 276q0 -68 43 -107.5t114 -39.5q64 0 126.5 33t107.5 84t76.5 108.5t41.5 110.5l9 37h-52q-60 0 -116 -4.5 t-122.5 -19t-114.5 -38.5t-80.5 -66t-32.5 -98z" />
<glyph unicode="&#x431;" horiz-adv-x="1169" d="M72 442q0 205 80 424q57 150 153.5 245.5t269.5 166.5l244 100q79 31 106 51t36 58l12 49h190l-18 -88q-8 -42 -25.5 -75.5t-36.5 -54.5t-55.5 -42t-61.5 -31.5t-75 -30.5l-262 -106q-262 -105 -316 -342h2q142 176 365 176q187 0 290 -108t103 -295q0 -165 -82 -295.5 t-215 -199.5t-289 -69q-108 0 -189.5 36t-130 101t-72 147.5t-23.5 182.5zM268 403q0 -127 67 -192.5t173 -65.5q91 0 174 45.5t137.5 133t54.5 196.5q0 123 -66.5 187.5t-174.5 64.5q-97 0 -183.5 -52.5t-136.5 -139.5q-45 -80 -45 -177z" />
<glyph unicode="&#x432;" horiz-adv-x="1067" d="M74 74q0 25 4 39l145 753h-129l33 170h541q147 0 231 -59.5t84 -167.5q0 -99 -57.5 -169.5t-141.5 -98.5v-4q72 -20 113 -76.5t41 -130.5q0 -150 -122 -240t-306 -90h-342q-49 0 -71.5 18t-22.5 56zM287 168q0 -27 32 -27h175q114 0 179.5 54.5t65.5 144.5q0 61 -47 94 t-135 33h-211l-51 -254q-8 -40 -8 -45zM369 600h198q97 0 154 51t57 137q0 107 -160 107h-190z" />
<glyph unicode="&#x433;" horiz-adv-x="901" d="M57 0l168 866h-129l33 170h688q58 0 84.5 -19t26.5 -63q0 -13 -4 -45l-31 -157h-166l10 55q1 6 2 13.5t1.5 11.5t0.5 6q0 28 -36 28h-281l-170 -866h-197z" />
<glyph unicode="&#x434;" horiz-adv-x="1204" d="M-145 -246l55 283q14 67 49 98t100 31h13q200 198 295 643l10 57h-125l35 170h688q69 0 93.5 -31t12.5 -100l-145 -739h35q65 0 88.5 -31t11.5 -98l-55 -283h-182l38 201q6 45 -34 45h-711q-42 -3 -51 -45l-37 -201h-184zM283 166h454l129 655q9 45 -37 45h-264l-10 -57 q-90 -439 -272 -643z" />
<glyph unicode="&#x435;" horiz-adv-x="1101" d="M43 416q0 172 77.5 319.5t217 236.5t309.5 89q193 0 293 -104.5t100 -278.5q0 -39 -7.5 -85t-14.5 -73l-8 -26h-756q-8 -35 -8 -74q0 -121 78 -197t217 -76q50 0 102 12.5t91 29.5t71 34.5t49 30.5l16 12l58 -153q-7 -6 -20 -15t-55.5 -33t-86.5 -42t-109.5 -33 t-128.5 -15q-223 0 -354 122.5t-131 318.5zM285 635h551q6 30 6 59q0 100 -55.5 154.5t-145.5 54.5q-116 0 -213.5 -71.5t-142.5 -196.5z" />
<glyph unicode="&#x436;" horiz-adv-x="1527" d="M-84 0l330 426q30 38 63.5 63t51.5 31l18 6l2 4q-4 2 -11 6t-22 25t-24 51l-64 213q-7 25 -26 33t-60 8h-59l32 170h119q74 0 105 -18t51 -78l80 -268q17 -60 108 -60h68l82 424h190l-82 -424h60q37 0 67 11.5t56 48.5l184 268q42 59 84.5 77.5t118.5 18.5h123l-33 -170 h-51q-40 0 -61.5 -8t-39.5 -33l-145 -213q-20 -30 -45.5 -50.5t-41.5 -25.5l-16 -6v-4l4 -2q5 -2 15 -8.5t20.5 -17t23 -29.5t21.5 -43l166 -426h-207l-135 360q-19 49 -50.5 65.5t-80.5 16.5h-69l-86 -442h-193l88 442h-63q-49 0 -85 -16t-73 -66l-277 -360h-231z" />
<glyph unicode="&#x437;" horiz-adv-x="899" d="M-41 127l100 125q18 -21 45 -43t87.5 -47t127.5 -25q102 0 177 54.5t75 152.5q0 119 -184 119h-131l27 139h104q107 0 175.5 50.5t68.5 142.5q0 57 -44.5 85.5t-117.5 28.5q-66 0 -122.5 -24.5t-63.5 -73.5l-9 -47h-165l16 96q19 98 122 149.5t240 51.5 q159 0 250.5 -63.5t91.5 -180.5q0 -108 -61 -179.5t-145 -96.5v-4q64 -21 104.5 -71.5t40.5 -131.5q0 -85 -39 -155t-103.5 -113.5t-142 -67t-159.5 -23.5q-229 0 -365 152z" />
<glyph unicode="&#x438;" horiz-adv-x="1267" d="M55 0l156 793q6 42 6 43q0 30 -37 30h-82l33 170h184q56 0 82.5 -20t26.5 -64q0 -21 -6 -45l-94 -481q-4 -24 -12 -56.5t-14.5 -56.5t-6.5 -26h4q8 13 49 61t74 82l565 606h195l-154 -786q-8 -36 -8 -49q0 -31 37 -31h82l-33 -170h-184q-57 0 -83 21t-26 65q0 15 4 43 l92 483q11 54 35 138h-4q-57 -76 -123 -142l-561 -608h-197z" />
<glyph unicode="&#x439;" horiz-adv-x="1267" d="M55 0l156 793q6 42 6 43q0 30 -37 30h-82l33 170h184q56 0 82.5 -20t26.5 -64q0 -21 -6 -45l-94 -481q-4 -24 -12 -56.5t-14.5 -56.5t-6.5 -26h4q8 13 49 61t74 82l565 606h195l-154 -786q-8 -36 -8 -49q0 -31 37 -31h82l-33 -170h-184q-57 0 -83 21t-26 65q0 15 4 43 l92 483q11 54 35 138h-4q-57 -76 -123 -142l-561 -608h-197zM494 1370q0 33 10 78h162q-11 -30 -11 -55q0 -50 33 -79.5t88 -29.5q66 0 115.5 39t60.5 125h158q-12 -80 -45.5 -138.5t-82.5 -91.5t-102.5 -48t-113.5 -15q-117 0 -194.5 60.5t-77.5 154.5z" />
<glyph unicode="&#x43a;" horiz-adv-x="1091" d="M57 0l154 795q6 36 6 41q0 30 -37 30h-82l31 170h193q60 0 87 -21.5t27 -68.5q0 -25 -6 -49l-51 -268h88q68 0 108 47l316 360h233l-364 -415q-25 -28 -48.5 -47.5t-34.5 -25.5l-11 -5v-4q32 -15 59 -78l102 -250q9 -24 26.5 -32.5t57.5 -8.5h62l-33 -170h-139 q-72 0 -100 18t-50 78l-123 322q-10 25 -32.5 33t-61.5 8h-88l-90 -459h-199z" />
<glyph unicode="&#x43b;" horiz-adv-x="1116" d="M-90 -6l33 176q76 6 149 88q75 84 130.5 231.5t84.5 296.5l15 80h-129l32 170h668q58 0 85.5 -21t27.5 -65q0 -5 -5 -45l-133 -676q-4 -24 -4 -26q0 -33 39 -33h84l-33 -170h-196q-57 0 -84 21t-27 67q0 19 6 43l129 676l2.5 10t2.5 10.5t1 6.5q0 32 -38 32h-238l-16 -82 q-16 -79 -38 -159.5t-58 -178.5t-89 -187.5t-116 -149.5q-125 -115 -285 -115z" />
<glyph unicode="&#x43c;" horiz-adv-x="1488" d="M-80 0l33 170h51q35 0 47 39l234 827h207l155 -594l27 -131h4q41 70 80 131l383 594h229l-88 -794q-2 -25 -2 -43q0 -29 31 -29h53l-35 -170h-151q-51 0 -72 19t-21 57q0 9 5 49l55 477q3 28 10.5 75.5t14.5 80.5l6 33h-5q-41 -80 -94 -160l-340 -506h-178l-145 506 q-9 34 -15.5 75t-8.5 65l-3 24h-4q-21 -130 -37 -193l-135 -489q-16 -59 -45.5 -86t-89.5 -27h-156z" />
<glyph unicode="&#x43d;" horiz-adv-x="1269" d="M57 0l152 784q10 45 10 52q0 30 -39 30h-84l33 170h197q57 0 83.5 -21t26.5 -65q0 -21 -6 -45l-55 -293h524l82 424h199l-154 -784q-8 -46 -8 -53q0 -29 37 -29h84l-33 -170h-197q-57 0 -83.5 21t-26.5 65q0 24 6 51l61 309h-524l-88 -446h-197z" />
<glyph unicode="&#x43e;" horiz-adv-x="1251" d="M41 432q0 130 55 248t145 200.5t209.5 131.5t245.5 49q212 0 346 -126t134 -327q0 -175 -94 -322t-244.5 -229t-317.5 -82q-211 0 -345 127t-134 330zM244 440q0 -130 82 -211.5t213 -81.5q107 0 206.5 58t163.5 163.5t64 229.5q0 129 -81 210t-210 81 q-109 0 -209.5 -58.5t-164.5 -163t-64 -227.5z" />
<glyph unicode="&#x43f;" horiz-adv-x="1245" d="M57 0l168 866h-129l33 170h895q111 0 111 -86q0 -17 -7 -45l-127 -659q-8 -40 -8 -45q0 -31 39 -31h82l-33 -170h-194q-58 0 -84.5 20.5t-26.5 65.5q0 24 6 51l129 662q1 7 2.5 15t3 13t1.5 7q0 32 -39 32h-455l-170 -866h-197z" />
<glyph unicode="&#x440;" horiz-adv-x="1234" d="M-23 -410l232 1194q6 34 6 52q0 16 -7.5 23t-27.5 7h-84l33 170h186q107 0 107 -75q0 -38 -21 -99h5q60 88 152.5 143.5t213.5 55.5q183 0 284 -114.5t101 -319.5q0 -138 -48 -261t-126.5 -207.5t-181 -134t-209.5 -49.5q-104 0 -186 47t-121 134h-4q-5 -44 -15 -97 l-92 -469h-197zM340 418q0 -119 58 -195t169 -76q70 0 138.5 33t124 91.5t90 147.5t34.5 193q0 132 -61.5 203.5t-171.5 71.5q-103 0 -192 -68t-139 -176t-50 -225z" />
<glyph unicode="&#x441;" horiz-adv-x="1075" d="M43 434q0 168 85 312.5t229.5 229.5t312.5 85q47 0 97.5 -7t105 -25t94 -44.5t61 -70t10.5 -97.5l-16 -90h-176l8 43q7 39 -25 68t-78 41t-96 12q-163 0 -286 -130t-123 -308q0 -135 77 -218t224 -83q59 0 114.5 13t93.5 31t68 36t44 31l14 13l57 -157q-6 -6 -17 -15.5 t-49.5 -34.5t-83 -44t-115.5 -34.5t-147 -15.5q-227 0 -355 127t-128 332z" />
<glyph unicode="&#x442;" horiz-adv-x="1083" d="M61 752l29 157q13 68 51 97.5t109 29.5h754q57 0 83.5 -20t26.5 -64q0 -22 -6 -43l-29 -157h-166l9 47q6 30 6 37q0 30 -37 30h-199l-168 -866h-198l168 866h-199q-46 0 -55 -45l-13 -69h-166z" />
<glyph unicode="&#x443;" horiz-adv-x="1112" d="M-164 -328l84 142l2 -3l6.5 -6.5t9 -8.5t11.5 -10t14 -10.5t17 -10.5t19.5 -9.5t21.5 -8t24.5 -5.5t26.5 -2q114 0 204 151l74 117l-194 817q-6 24 -17.5 32.5t-38.5 8.5h-24l33 170h133q47 0 69 -24t33 -80l121 -584q4 -24 7 -55t4 -51l1 -19h4q31 72 60 125l329 584 q35 61 71.5 82.5t100.5 21.5h127l-34 -170h-25q-52 0 -74 -41l-608 -1018q-142 -237 -362 -237q-39 0 -77.5 10.5t-65 25.5t-47 30t-30.5 26z" />
<glyph unicode="&#x444;" horiz-adv-x="1505" d="M45 432q0 174 89 312t246.5 214.5t356.5 77.5l35 176q4 28 4 33q0 31 -37 31h-84l33 170h195q58 0 85 -21t27 -65q0 -13 -4 -45l-55 -279q216 -2 352.5 -118.5t136.5 -309.5q0 -265 -194 -435.5t-496 -172.5l-80 -410h-198l78 410q-220 2 -355 119.5t-135 312.5zM248 440 q0 -126 83.5 -200t235.5 -74l138 706q-90 -2 -172.5 -33.5t-146 -86t-101 -136t-37.5 -176.5zM766 166q89 2 171.5 33t146 86t101.5 137t38 178q0 126 -84.5 199t-235.5 73z" />
<glyph unicode="&#x445;" horiz-adv-x="1032" d="M-76 0l463 543l-149 284q-11 23 -30.5 31t-51.5 8h-60l35 170h127q59 0 89.5 -22.5t60.5 -85.5l94 -195l22 -63h4q25 38 45 63l158 195q38 47 61 67.5t53.5 30.5t78.5 10h147l-33 -170h-59q-35 0 -56 -7t-40 -30l-265 -305l254 -524h-208l-164 336l-23 57h-4 q-16 -28 -39 -57l-280 -336h-230z" />
<glyph unicode="&#x446;" horiz-adv-x="1239" d="M74 84q0 18 6 45l127 655q8 36 8 50q0 32 -37 32h-84l33 170h197q56 0 83 -20.5t27 -65.5q0 -21 -6 -45l-127 -651q-8 -50 -8 -55q0 -33 35 -33h442l170 870h199l-170 -870h32q107 0 107 -84q0 -21 -6 -45l-53 -283h-185l35 174q1 6 3.5 21.5t2.5 19.5q0 31 -35 31h-686 q-57 0 -83.5 20t-26.5 64z" />
<glyph unicode="&#x447;" horiz-adv-x="1099" d="M76 866l33 170h186q108 0 108 -86q0 -11 -4 -47l-34 -176q-9 -35 -9 -65q0 -130 166 -130q124 0 246 74l84 430h199l-203 -1036h-199l74 371l16 65h-4q-142 -71 -291 -71q-143 0 -218.5 63t-75.5 172q0 36 8 72l24 127q1 7 2.5 15.5t2.5 14t1 7.5q0 17 -8.5 23.5 t-29.5 6.5h-74z" />
<glyph unicode="&#x448;" horiz-adv-x="1695" d="M74 86q0 19 6 43l125 657q2 10 4.5 22t4 19t1.5 9q0 30 -39 30h-82l33 170h195q57 0 83.5 -21t26.5 -65q0 -13 -4 -45l-127 -657q-2 -10 -4.5 -21.5t-4 -19t-1.5 -10.5q0 -14 10 -22.5t27 -8.5h334l169 870h197l-170 -870h340q44 0 53 45l133 694q13 69 51 100t107 31 h195l-33 -170h-84q-46 0 -55 -45l-131 -692q-15 -68 -52 -98.5t-106 -30.5h-1092q-58 0 -84 20.5t-26 65.5z" />
<glyph unicode="&#x449;" horiz-adv-x="1716" d="M74 86q0 19 6 43l125 657q2 10 4.5 22t4 19t1.5 9q0 30 -39 30h-82l33 170h195q57 0 83.5 -21t26.5 -65q0 -13 -4 -45l-127 -657q-10 -42 -10 -51q0 -14 10 -22.5t27 -8.5h334l169 870h197l-170 -870h383l168 870h201l-170 -870h43q106 0 106 -82q0 -20 -6 -41l-55 -289 h-182l32 170q8 40 8 47q0 13 -10 21t-28 8h-1164q-58 0 -84 20.5t-26 65.5z" />
<glyph unicode="&#x44a;" horiz-adv-x="1220" d="M59 754l29 155q15 70 51.5 98.5t106.5 28.5h297q108 0 108 -84q0 -19 -4 -43l-49 -250h207q158 0 241.5 -72.5t83.5 -193.5q0 -179 -121 -286t-304 -107h-320q-51 0 -73.5 17.5t-22.5 56.5q0 11 4 39l133 686q2 10 4 21l3 16.5t1 7.5q0 33 -39 33h-110q-43 0 -52 -46 l-14 -77h-160zM504 172q0 -29 33 -29h155q106 0 171 66t65 170q0 63 -40 100t-122 37h-195l-59 -301q-2 -11 -4 -21l-3 -15t-1 -7z" />
<glyph unicode="&#x44b;" horiz-adv-x="1486" d="M74 74q0 25 4 39l129 678q10 38 10 45q0 30 -39 30h-84l33 170h197q112 0 112 -84q0 -7 -6 -43l-49 -250h197q161 0 245 -72.5t84 -193.5q0 -119 -57.5 -209.5t-154 -137t-216.5 -46.5h-311q-49 0 -71.5 18t-22.5 56zM287 172q0 -29 32 -29h150q105 0 170.5 66.5 t65.5 169.5q0 63 -41 100t-123 37h-187l-59 -301q-2 -11 -4 -21l-3 -15t-1 -7zM1020 131l176 905h199l-160 -821q-9 -45 35 -45h84l-33 -170h-197q-68 0 -92.5 31t-11.5 100z" />
<glyph unicode="&#x44c;" horiz-adv-x="1003" d="M74 74q0 25 4 39l129 678q10 38 10 45q0 30 -39 30h-84l33 170h197q112 0 112 -84q0 -7 -6 -43l-49 -250h205q159 0 243 -72.5t84 -193.5q0 -179 -121.5 -286t-304.5 -107h-319q-49 0 -71.5 18t-22.5 56zM287 172q0 -29 32 -29h156q106 0 172 66t66 170q0 63 -41 100 t-123 37h-195l-59 -301q-2 -11 -4 -21l-3 -15t-1 -7z" />
<glyph unicode="&#x44d;" horiz-adv-x="1083" d="M-35 133l88 135q50 -60 132.5 -95.5t174.5 -35.5q146 0 263.5 87.5t164.5 221.5h-485l27 140h487q7 143 -76.5 228t-220.5 85q-79 0 -154 -30.5t-85 -80.5l-9 -49h-170l17 86q20 106 139 171t277 65q216 0 344.5 -129.5t128.5 -331.5q0 -121 -49.5 -235t-133.5 -200 t-204.5 -138t-253.5 -52q-114 0 -225.5 40.5t-176.5 117.5z" />
<glyph unicode="&#x44e;" horiz-adv-x="1701" d="M55 0l154 793q2 9 4 19.5t3 15.5t1 8q0 30 -39 30h-82l33 170h197q57 0 82.5 -20.5t25.5 -65.5q0 -13 -4 -45l-59 -303h182q57 201 228 330t380 129q203 0 333 -127t130 -330q0 -129 -53 -247t-140.5 -201t-203.5 -132t-238 -49q-203 0 -331 126.5t-128 334.5v8h-188 l-88 -444h-199zM733 444q0 -134 76 -215.5t197 -81.5q78 0 153.5 35t133 94t93 143t35.5 175q0 133 -77 214t-199 81q-78 0 -153 -35t-132 -94t-92 -142t-35 -174z" />
<glyph unicode="&#x44f;" horiz-adv-x="1075" d="M-66 0l33 172h31q35 0 55 7.5t41 31.5l142 162q27 32 63 53l2 4q-76 19 -123 84.5t-47 157.5q0 165 117.5 264.5t286.5 99.5h581l-33 -170h-129l-168 -866h-198l74 377h-117q-40 0 -60.5 -12.5t-62.5 -57.5l-178 -211q-54 -61 -93.5 -78.5t-113.5 -17.5h-103zM332 672 q0 -71 48 -111.5t132 -40.5h176l74 379h-189q-105 0 -173 -64t-68 -163z" />
<glyph unicode="&#x450;" horiz-adv-x="1105" d="M43 416q0 172 77.5 319.5t217 236.5t309.5 89q193 0 293 -104.5t100 -278.5q0 -39 -7.5 -85t-14.5 -73l-8 -26h-756q-8 -35 -8 -74q0 -121 78 -197t217 -76q50 0 102 12.5t91 29.5t71 34.5t49 30.5l16 12l58 -153q-7 -6 -20 -15t-55.5 -33t-86.5 -42t-109.5 -33 t-128.5 -15q-223 0 -354 122.5t-131 318.5zM285 635h551q6 30 6 59q0 100 -55.5 154.5t-145.5 54.5q-116 0 -213.5 -71.5t-142.5 -196.5zM504 1448h192l105 -260h-148z" />
<glyph unicode="&#x451;" horiz-adv-x="1105" d="M43 416q0 172 77.5 319.5t217 236.5t309.5 89q193 0 293 -104.5t100 -278.5q0 -39 -7.5 -85t-14.5 -73l-8 -26h-756q-8 -35 -8 -74q0 -121 78 -197t217 -76q50 0 102 12.5t91 29.5t71 34.5t49 30.5l16 12l58 -153q-7 -6 -20 -15t-55.5 -33t-86.5 -42t-109.5 -33 t-128.5 -15q-223 0 -354 122.5t-131 318.5zM285 635h551q6 30 6 59q0 100 -55.5 154.5t-145.5 54.5q-116 0 -213.5 -71.5t-142.5 -196.5zM455 1241l41 207h149l-41 -207h-149zM791 1241l40 207h152l-41 -207h-151z" />
<glyph unicode="&#x452;" horiz-adv-x="1196" d="M20 0l220 1133h-127l28 145h127l33 168h199l-33 -168h424l-29 -145h-424l-63 -334q-4 -22 -11 -44.5t-12 -34.5l-4 -11h4q48 87 165 161t255 74q144 0 224.5 -68.5t80.5 -205.5q0 -56 -16 -131l-109 -564q-16 -85 -47 -153t-72 -110t-84.5 -71.5t-92 -43.5t-86 -19.5 t-74.5 -5.5l-88 6l34 170q25 -4 58 -4q27 0 53 4.5t59.5 20t60 41.5t50 73.5t35.5 110.5l96 502q14 72 14 116q0 75 -39.5 112.5t-113.5 37.5q-150 0 -272.5 -120t-155.5 -286l-70 -356h-197z" />
<glyph unicode="&#x453;" horiz-adv-x="901" d="M57 0l168 866h-129l33 170h688q58 0 84.5 -19t26.5 -63q0 -13 -4 -45l-31 -157h-166l10 55q1 6 2 13.5t1.5 11.5t0.5 6q0 28 -36 28h-281l-170 -866h-197zM487 1188l199 260h207l-244 -260h-162z" />
<glyph unicode="&#x454;" horiz-adv-x="1083" d="M43 432q0 123 49.5 238t135 201t208.5 138t262 52q52 0 110 -12.5t112 -36t89 -64t35 -90.5q0 -16 -2 -24l-18 -95h-168l4 31q6 24 6 35q0 44 -60 71t-130 27q-144 0 -256.5 -87.5t-159.5 -223.5h496l-25 -137h-500q-8 -142 79 -229t237 -87q91 0 183 38.5t163 101.5 l65 -148q-73 -67 -195.5 -111.5t-238.5 -44.5q-220 0 -350.5 126.5t-130.5 330.5z" />
<glyph unicode="&#x455;" horiz-adv-x="921" d="M-27 152l101 131q4 -6 12.5 -16t38 -35t63 -44t86.5 -35t109 -16q90 0 147.5 39.5t57.5 104.5q0 26 -11 48t-24.5 36.5t-43 30.5t-46.5 23.5t-55 22.5q-50 20 -83.5 35t-77 43t-69.5 57.5t-44.5 74.5t-18.5 98q0 99 58 171.5t147.5 106t197.5 33.5q64 0 127.5 -13 t118.5 -39t83.5 -71t16.5 -102l-16 -74h-174l6 39q8 43 -37 72.5t-129 29.5q-91 0 -145 -38.5t-54 -100.5q0 -33 14.5 -58.5t45.5 -46t57 -33t71 -30.5l15 -6q49 -19 80 -33t72.5 -40.5t65.5 -54t41.5 -70t17.5 -93.5q0 -142 -116 -233t-298 -91q-79 0 -150.5 18 t-116.5 44.5t-78.5 52.5t-47.5 44z" />
<glyph unicode="&#x456;" horiz-adv-x="542" d="M78 94q0 28 6 51l125 646q6 30 6 45q0 30 -37 30h-84l33 170h190q59 0 87 -21.5t28 -68.5q0 -17 -8 -63l-125 -650q-6 -30 -6 -32q0 -31 39 -31h82l-31 -170h-190q-115 0 -115 94zM299 1239l41 207h180l-41 -207h-180z" />
<glyph unicode="&#x457;" horiz-adv-x="542" d="M78 94q0 28 6 51l125 646q6 30 6 45q0 30 -37 30h-84l33 170h190q59 0 87 -21.5t28 -68.5q0 -17 -8 -63l-125 -650q-6 -30 -6 -32q0 -31 39 -31h82l-31 -170h-190q-115 0 -115 94zM154 1239l43 207h149l-41 -207h-151zM440 1239l41 207h152l-43 -207h-150z" />
<glyph unicode="&#x458;" horiz-adv-x="503" d="M-289 -418l35 170q16 -4 43 -4q39 0 75 9t76 33t70.5 75t44.5 125l156 801q6 30 6 45q0 30 -37 30h-82l33 170h188q60 0 88.5 -21.5t28.5 -68.5q0 -11 -8 -61l-178 -922q-19 -100 -62.5 -174t-91.5 -113t-109 -62.5t-104 -29.5t-88 -6zM303 1239l39 207h178l-39 -207 h-178z" />
<glyph unicode="&#x459;" horiz-adv-x="1519" d="M-96 -10l33 178q88 3 163 90t129 235.5t84 301.5l15 71h-129l32 170h613q110 0 110 -82q0 -26 -2 -36l-53 -267h203q157 0 242.5 -73.5t85.5 -198.5q0 -168 -119 -273.5t-326 -105.5h-299q-94 0 -94 76q0 13 4 37l133 680q8 41 8 49q0 32 -39 32h-182l-12 -73 q-15 -80 -36.5 -160.5t-54.5 -177t-81 -184.5t-105 -150q-133 -139 -323 -139zM807 172q0 -29 33 -29h149q108 0 177 61.5t69 155.5q0 70 -45 108t-133 38h-187l-55 -285q-8 -41 -8 -49z" />
<glyph unicode="&#x45a;" horiz-adv-x="1677" d="M57 0l152 778q10 52 10 58q0 30 -39 30h-82l33 170h197q57 0 82.5 -20.5t25.5 -65.5q0 -13 -4 -45l-51 -262h485l76 393h199l-76 -391h192q159 0 246.5 -74t87.5 -196q0 -163 -124.5 -269t-311.5 -106h-301q-51 0 -73.5 17.5t-22.5 56.5q0 11 4 39l74 372h-486l-94 -485 h-199zM973 170q0 -27 33 -27h147q104 0 173 62t69 160q0 63 -43.5 97t-128.5 34h-187l-53 -275q-10 -45 -10 -51z" />
<glyph unicode="&#x45b;" horiz-adv-x="1239" d="M20 0l220 1133h-129l30 145h127l33 168h199l-33 -168h424l-29 -145h-424l-63 -330q-4 -20 -11 -43t-11 -35t-3 -12h4q53 90 165 160.5t249 70.5q148 0 228.5 -66.5t80.5 -201.5q0 -51 -14 -133l-57 -293q-2 -9 -4 -20t-3.5 -17.5t-1.5 -9.5q0 -33 39 -33h82l-33 -170 h-194q-59 0 -86 21t-27 67q0 19 6 43l72 371q12 58 12 110q0 75 -40.5 112.5t-112.5 37.5q-155 0 -275.5 -119t-152.5 -287l-70 -356h-197z" />
<glyph unicode="&#x45c;" horiz-adv-x="1091" d="M57 0l154 795q6 36 6 41q0 30 -37 30h-82l31 170h193q60 0 87 -21.5t27 -68.5q0 -25 -6 -49l-51 -268h88q68 0 108 47l316 360h233l-364 -415q-25 -28 -48.5 -47.5t-34.5 -25.5l-11 -5v-4q32 -15 59 -78l102 -250q9 -24 26.5 -32.5t57.5 -8.5h62l-33 -170h-139 q-72 0 -100 18t-50 78l-123 322q-10 25 -32.5 33t-61.5 8h-88l-90 -459h-199zM588 1188l198 260h207l-243 -260h-162z" />
<glyph unicode="&#x45d;" horiz-adv-x="1267" d="M55 0l156 793q6 42 6 43q0 30 -37 30h-82l33 170h184q56 0 82.5 -20t26.5 -64q0 -21 -6 -45l-94 -481q-4 -24 -12 -56.5t-14.5 -56.5t-6.5 -26h4q8 13 49 61t74 82l565 606h195l-154 -786q-8 -36 -8 -49q0 -31 37 -31h82l-33 -170h-184q-57 0 -83 21t-26 65q0 15 4 43 l92 483q11 54 35 138h-4q-57 -76 -123 -142l-561 -608h-197zM565 1448h193l104 -260h-147z" />
<glyph unicode="&#x45e;" horiz-adv-x="1112" d="M-164 -328l84 142l2 -3l6.5 -6.5t9 -8.5t11.5 -10t14 -10.5t17 -10.5t19.5 -9.5t21.5 -8t24.5 -5.5t26.5 -2q114 0 204 151l74 117l-194 817q-6 24 -17.5 32.5t-38.5 8.5h-24l33 170h133q47 0 69 -24t33 -80l121 -584q4 -24 7 -55t4 -51l1 -19h4q31 72 60 125l329 584 q35 61 71.5 82.5t100.5 21.5h127l-34 -170h-25q-52 0 -74 -41l-608 -1018q-142 -237 -362 -237q-39 0 -77.5 10.5t-65 25.5t-47 30t-30.5 26zM399 1372q0 28 11 78h161q-10 -27 -10 -55q0 -50 33 -79.5t88 -29.5q66 0 115.5 39t60.5 125h158q-12 -80 -45.5 -138.5 t-82.5 -91.5t-102.5 -48t-113.5 -15q-117 0 -195 60.5t-78 154.5z" />
<glyph unicode="&#x45f;" horiz-adv-x="1208" d="M74 84q0 18 6 45l127 651q8 50 8 54q0 32 -37 32h-84l33 170h197q56 0 83 -20.5t27 -65.5q0 -21 -6 -45l-127 -651q-10 -48 -10 -55q0 -33 37 -33h383q44 0 53 45l135 694q12 69 49.5 100t108.5 31h194l-34 -170h-82q-45 0 -54 -45l-135 -692q-14 -69 -49.5 -99 t-105.5 -30h-213l-50 -246h-178l49 246h-215q-57 0 -83.5 20t-26.5 64z" />
<glyph unicode="&#x462;" horiz-adv-x="1380" d="M109 1075l32 176h363l39 195h205l-37 -195h395l-35 -176h-395l-45 -227h268q87 0 161 -19.5t133.5 -58.5t93.5 -105.5t34 -154.5q0 -113 -46.5 -210.5t-123.5 -162t-175 -101t-202 -36.5h-381q-58 0 -84 21t-26 67q0 27 4 43l184 944h-362zM506 205q0 -33 39 -33h237 q134 0 231 88t97 234q0 90 -61.5 136t-167.5 46h-283l-86 -438l-2.5 -12.5l-2.5 -12.5t-1 -8z" />
<glyph unicode="&#x463;" horiz-adv-x="1093" d="M80 940l29 150h247l70 356h199l-70 -356h338l-29 -150h-338l-55 -274h203q160 0 248 -76.5t88 -204.5q0 -161 -126 -273t-311 -112h-317q-92 0 -92 74q0 25 4 39l160 827h-248zM377 170q0 -12 9 -19.5t24 -7.5h153q104 0 175 68t71 168q0 67 -44.5 105t-127.5 38h-193 l-57 -297q-10 -39 -10 -55z" />
<glyph unicode="&#x472;" horiz-adv-x="1628" d="M82 606q0 137 47 268.5t131.5 238t194 187.5t242 125.5t268.5 44.5q184 0 327.5 -78.5t222 -219t78.5 -318.5q0 -174 -74 -337t-195 -281t-283 -189.5t-330 -71.5q-278 0 -453.5 177t-175.5 454zM295 614q0 -197 121 -321.5t313 -124.5q199 0 377 137.5t244 343.5h-1055 v-35zM326 811h1052q0 5 1 15.5t1 15.5q0 195 -120.5 316.5t-311.5 121.5q-201 0 -378 -133.5t-244 -335.5z" />
<glyph unicode="&#x473;" horiz-adv-x="1251" d="M41 432q0 130 55 248t145 200.5t209.5 131.5t245.5 49q212 0 346 -126t134 -327q0 -175 -94 -322t-244.5 -229t-317.5 -82q-211 0 -345 127t-134 330zM231 440q0 -136 85.5 -220.5t222.5 -84.5q135 0 258 92t168 234h-734v-21zM256 588h731v10q0 135 -85 220t-220 85 q-136 0 -256.5 -88t-169.5 -227z" />
<glyph unicode="&#x474;" horiz-adv-x="1411" d="M188 1446h218l161 -1010l17 -198h4q53 120 94 198l451 848q29 55 55 86.5t59 48.5t67 22t91 5h149l-34 -178h-47q-73 0 -102 -16.5t-62 -80.5l-650 -1171h-217z" />
<glyph unicode="&#x475;" horiz-adv-x="1144" d="M111 1036h200l125 -700q4 -25 6.5 -59.5t3.5 -56.5v-21h5q32 80 63 137l274 512q58 105 124.5 146.5t177.5 41.5h120l-34 -174h-54q-65 0 -100 -21.5t-72 -90.5l-420 -750h-221z" />
<glyph unicode="&#x48a;" horiz-adv-x="1624" d="M84 0l238 1225q9 45 -35 45h-88l34 176h207q69 0 94 -31t11 -100l-156 -793q-6 -36 -19 -88t-22 -86l-10 -33h4q90 133 156 209l811 922h215l-240 -1225q-6 -45 37 -45h182l-24 -117l-215 -346h-158l137 287h-74q-69 0 -94 31t-12 100l154 795q7 36 21 88.5t24 87.5 l10 35h-4q-86 -133 -152 -211l-817 -926h-215zM717 1729q0 32 10 77h162q-10 -27 -10 -55q0 -51 32.5 -80t87.5 -29q66 0 116 39.5t61 124.5h157q-12 -80 -45.5 -138.5t-82.5 -91.5t-102.5 -48t-113.5 -15q-117 0 -194.5 61t-77.5 155z" />
<glyph unicode="&#x48b;" horiz-adv-x="1320" d="M55 0l156 793q6 42 6 43q0 30 -37 30h-82l33 170h184q56 0 82.5 -20t26.5 -64q0 -21 -6 -45l-94 -481q-4 -24 -12 -56.5t-14.5 -56.5t-6.5 -26h4q8 13 49 61t74 82l565 606h195l-154 -786q-8 -36 -8 -49q0 -28 26 -31h160l-22 -113l-185 -303h-149l115 246h-43 q-57 0 -83 21t-26 65q0 15 4 43l92 483q11 54 35 138h-4q-57 -76 -123 -142l-561 -608h-197zM489 1370q0 28 11 78h162q-11 -30 -11 -55q0 -50 33 -79.5t88 -29.5q66 0 115.5 39t60.5 125h158q-12 -80 -45.5 -138.5t-82.5 -91.5t-102.5 -48t-113.5 -15q-117 0 -195 60.5 t-78 154.5z" />
<glyph unicode="&#x48c;" horiz-adv-x="1347" d="M121 1167l29 158h323l43 211h205l-41 -211h375l-31 -158h-375l-55 -288h262q69 0 132 -14t118 -43.5t95.5 -72.5t63.5 -105.5t23 -137.5q0 -149 -77.5 -266t-202 -178.5t-269.5 -61.5h-389q-57 0 -83.5 21t-26.5 67q0 11 4 43l200 1036h-323zM463 205q0 -33 39 -33h243 q139 0 235.5 93.5t96.5 240.5q0 95 -62.5 148t-170.5 53h-283l-94 -482q-4 -16 -4 -20z" />
<glyph unicode="&#x48d;" horiz-adv-x="1093" d="M80 940l29 150h247l70 356h199l-70 -356h338l-29 -150h-338l-55 -274h203q160 0 248 -76.5t88 -204.5q0 -161 -126 -273t-311 -112h-317q-92 0 -92 74q0 25 4 39l160 827h-248zM377 170q0 -12 9 -19.5t24 -7.5h153q104 0 175 68t71 168q0 67 -44.5 105t-127.5 38h-193 l-57 -297q-10 -39 -10 -55z" />
<glyph unicode="&#x48e;" horiz-adv-x="1269" d="M82 0l248 1270h-133l36 176h633q180 0 287 -104t107 -277q0 -124 -51.5 -228.5t-141.5 -177.5l121 -157l-117 -90l-131 168q-106 -45 -221 -45h-328l-104 -535h-205zM424 692h289q69 0 127 21l-125 164l119 90l133 -176q102 102 102 264q0 101 -64 158t-178 57h-292z" />
<glyph unicode="&#x48f;" horiz-adv-x="1265" d="M-23 -410l232 1194q6 34 6 50q0 18 -7.5 25t-27.5 7h-84l33 170h186q107 0 107 -75q0 -38 -21 -99h5q59 88 151.5 143.5t216.5 55.5q180 0 281.5 -115t101.5 -319q0 -147 -52.5 -273t-143.5 -217l112 -137l-112 -94l-115 141q-119 -72 -254 -72q-104 0 -186 47t-121 134 h-4q-5 -42 -15 -97l-92 -469h-197zM340 420q0 -125 60 -203t175 -78q86 0 162 43l-125 158l113 94l125 -158q121 138 121 330q0 136 -62.5 208.5t-173.5 72.5q-109 0 -201 -68.5t-143 -175.5t-51 -223z" />
<glyph unicode="&#x490;" horiz-adv-x="1032" d="M84 0l246 1270h-133l36 176h697q44 0 53 45l21 102h186l-37 -192q-13 -69 -50.5 -100t-105.5 -31h-462l-246 -1270h-205z" />
<glyph unicode="&#x491;" horiz-adv-x="856" d="M57 0l168 866h-127l31 170h569q47 0 56 45l18 93h168l-37 -179q-12 -70 -48.5 -99.5t-106.5 -29.5h-324l-170 -866h-197z" />
<glyph unicode="&#x492;" horiz-adv-x="1052" d="M78 616l28 158h134l98 496h-133l35 176h809q57 0 83.5 -20.5t26.5 -65.5q0 -21 -6 -45l-35 -182h-186l10 55q2 10 4 21.5t3 17.5t1 10q0 33 -37 33h-370l-99 -496h318l-31 -158h-315l-121 -616h-205l121 616h-133z" />
<glyph unicode="&#x493;" horiz-adv-x="907" d="M10 403l27 142h125l63 321h-129l33 170h688q58 0 84.5 -19t26.5 -63q0 -13 -4 -45l-31 -157h-166l10 55q1 6 2 13.5t1.5 11.5t0.5 6q0 28 -36 28h-281l-64 -321h265l-25 -142h-268l-78 -403h-197l78 403h-125z" />
<glyph unicode="&#x494;" horiz-adv-x="1239" d="M84 0l248 1278h-133l32 168h844q57 0 84 -19.5t27 -62.5q0 -18 -6 -45l-33 -166h-170l12 59q0 3 3 15t3 18q0 33 -39 33h-421l-97 -483q144 59 293 59q196 0 299 -108t103 -330q0 -112 -26.5 -224t-81.5 -215t-132.5 -181t-188 -122t-239.5 -39l33 168q84 1 155.5 39.5 t119.5 100t82 140t49.5 159t15.5 157.5q0 64 -11.5 111t-39 85.5t-78.5 58.5t-125 20q-120 0 -260 -62l-121 -612h-201z" />
<glyph unicode="&#x495;" horiz-adv-x="1036" d="M57 0l168 866h-127l31 170h715q54 0 78 -16.5t24 -56.5q0 -11 -4 -43l-33 -168h-166l9 49q8 36 8 41q0 24 -33 24h-303l-72 -362q112 51 223 51q168 0 249 -92t81 -240q0 -202 -112 -373t-312 -274l-80 150q130 70 219 197.5t89 279.5q0 84 -45 135t-146 51 q-96 0 -199 -55l-65 -334h-197z" />
<glyph unicode="&#x496;" horiz-adv-x="1888" d="M-100 0l512 664q25 32 52.5 56t42.5 32l15 8v4q-4 1 -11 5.5t-24 26.5t-30 56l-135 371q-10 29 -31.5 38t-63.5 9h-34l34 176h90q85 0 116 -20t56 -89l162 -446q12 -35 38 -46t75 -11h92l119 612h196l-118 -612h71q50 0 82.5 11t59.5 46l325 446q50 68 94 88.5t130 20.5 h104l-33 -176h-33q-40 0 -64 -9t-46 -38l-283 -379q-24 -34 -51 -57.5t-42 -30.5l-15 -6v-5q5 -2 13 -8t27 -30t31 -56l187 -475h80q57 0 82.5 -19.5t25.5 -62.5q0 -20 -6 -47l-63 -334h-185l39 201q10 48 10 55q0 28 -30 31h-97l-233 608q-14 37 -38.5 48.5t-68.5 11.5 h-106l-131 -668h-197l131 668h-94q-44 0 -72 -11.5t-57 -48.5l-465 -608h-235z" />
<glyph unicode="&#x497;" horiz-adv-x="1583" d="M-84 0l330 426q30 38 63.5 63t51.5 31l18 6l2 4q-4 2 -11 6t-22 25t-24 51l-64 213q-7 25 -26 33t-60 8h-59l32 170h119q74 0 105 -18t51 -78l80 -268q17 -60 108 -60h68l82 424h190l-82 -424h60q37 0 67 11.5t56 48.5l184 268q42 59 84.5 77.5t118.5 18.5h123l-33 -170 h-51q-40 0 -61.5 -8t-39.5 -33l-145 -213q-20 -30 -45.5 -50.5t-41.5 -25.5l-16 -6v-4l4 -2q5 -2 15 -8.5t20.5 -17t23 -29.5t21.5 -43l101 -260h55q105 0 105 -84q0 -14 -7 -49l-53 -279h-184l31 158q10 52 10 57q0 14 -9 22.5t-24 8.5h-66l-135 360q-19 49 -50.5 65.5 t-80.5 16.5h-69l-86 -442h-193l88 442h-63q-49 0 -85 -16t-73 -66l-277 -360h-231z" />
<glyph unicode="&#x498;" horiz-adv-x="1089" d="M-31 168l125 137q49 -65 130.5 -106t183.5 -41q147 0 252.5 83.5t105.5 213.5q0 96 -63.5 145t-172.5 49h-192l33 168h159q119 0 215.5 79t96.5 198q0 89 -54.5 142.5t-166.5 53.5q-94 0 -166 -40.5t-84 -98.5l-11 -59h-188l23 112q11 58 46 105t82 76.5t106 49 t114.5 27.5t109.5 8q177 0 289.5 -91t112.5 -251q0 -135 -77 -233.5t-202 -144.5v-5q90 -33 143.5 -105t53.5 -181q0 -190 -138 -321.5t-337 -155.5l-52 -269h-182l51 271q-105 14 -196.5 61t-149.5 123z" />
<glyph unicode="&#x499;" horiz-adv-x="905" d="M-39 127l100 125q18 -21 45 -43t88 -47t128 -25q102 0 176.5 54.5t74.5 152.5q0 119 -184 119h-131l27 139h104q107 0 175.5 50.5t68.5 142.5q0 57 -44.5 85.5t-117.5 28.5q-66 0 -122.5 -24.5t-63.5 -73.5l-9 -47h-165l16 96q19 98 122 149.5t240 51.5 q159 0 250.5 -63.5t91.5 -180.5q0 -108 -61 -179.5t-145 -96.5v-4q64 -21 104.5 -71.5t40.5 -131.5q0 -143 -103 -234.5t-251 -115.5l-43 -230h-180l43 230q-170 23 -275 143z" />
<glyph unicode="&#x49a;" horiz-adv-x="1294" d="M84 0l231 1186q1 8 3.5 20t4 19.5t1.5 11.5q0 33 -41 33h-84l34 176h195q119 0 119 -92q0 -38 -8 -74l-86 -442h137q81 0 119 49l430 559h239l-467 -600q-24 -30 -48.5 -53.5t-36.5 -32.5l-13 -8v-4q31 -28 51 -91l148 -481h69q57 0 83 -19.5t26 -62.5q0 -11 -4 -47 l-66 -334h-184l39 201q10 48 10 55q0 31 -35 31h-100l-188 610q-8 30 -34.5 41t-76.5 11h-133l-129 -662h-205z" />
<glyph unicode="&#x49b;" horiz-adv-x="1099" d="M57 0l154 795q6 36 6 41q0 30 -37 30h-82l31 170h193q60 0 87 -21.5t27 -68.5q0 -25 -6 -49l-51 -268h88q68 0 108 47l316 360h233l-364 -415q-25 -28 -48.5 -47.5t-34.5 -25.5l-11 -5v-4q32 -15 59 -78l121 -295h33q104 0 104 -84q0 -19 -6 -49l-53 -279h-185l31 158 q10 52 10 57q0 31 -30 31h-62l-160 418q-10 25 -32.5 33t-61.5 8h-88l-90 -459h-199z" />
<glyph unicode="&#x49c;" horiz-adv-x="1433" d="M84 0l231 1186q1 8 3.5 20t4 19.5t1.5 11.5q0 33 -41 33h-84l34 176h195q119 0 119 -92q0 -38 -8 -74l-86 -442h147l47 245h152l-47 -245h18q81 0 119 49l430 559h237l-466 -600q-24 -30 -48.5 -53.5t-37.5 -32.5l-13 -8v-4q33 -28 51 -91l134 -432q9 -26 27 -37.5 t50 -11.5h66l-35 -176h-133q-67 0 -103 25.5t-53 83.5l-153 501q-8 30 -35 41t-76 11h-14l-47 -248h-152l47 248h-147l-129 -662h-205z" />
<glyph unicode="&#x49d;" horiz-adv-x="1222" d="M57 0l150 778q10 48 10 58q0 30 -37 30h-84l33 170h197q59 0 85.5 -17.5t26.5 -60.5q0 -29 -4 -45l-53 -274h106l37 188h144l-37 -188q62 0 98 43l295 354h236l-342 -403q-12 -14 -24 -26t-21.5 -19.5t-18 -13.5t-14.5 -9.5t-11 -6t-7 -2.5l-1 -1l-2 -4q4 -2 10.5 -7 t20.5 -26.5t22 -50.5l82 -256q9 -25 25.5 -33t56.5 -8h64l-33 -170h-139q-73 0 -101.5 17.5t-48.5 78.5l-98 330q-8 24 -27.5 31.5t-54.5 9.5l-43 -234h-145l45 234h-109l-90 -467h-199z" />
<glyph unicode="&#x49e;" horiz-adv-x="1271" d="M90 0l211 1075h-168l29 154h170l43 217h205l-45 -217h192l-29 -154h-194l-47 -237h151q81 0 119 49l430 559h240l-467 -600q-24 -30 -48.5 -53.5t-37.5 -32.5l-13 -8v-4q34 -28 52 -91l133 -432q17 -49 78 -49h65l-35 -176h-133q-66 0 -102 25.5t-55 83.5l-154 501 q-8 30 -34.5 41t-76.5 11h-147l-127 -662h-205z" />
<glyph unicode="&#x49f;" horiz-adv-x="1073" d="M39 0l209 1081h-144l29 142h143l43 223h199l-43 -223h240l-27 -142h-242l-81 -426h92q62 0 104 45l307 336h240l-358 -387q-24 -24 -48 -43.5t-36 -27.5l-13 -7l-2 -4q26 -12 49 -78l107 -278q9 -24 27 -32.5t57 -8.5h63l-34 -170h-134q-69 0 -97 18.5t-50 77.5l-125 344 q-19 47 -90 47h-90l-96 -487h-199z" />
<glyph unicode="&#x4a0;" horiz-adv-x="1552" d="M127 1133l37 192q12 68 46 94.5t105 26.5h689l-35 -176h-133l-84 -432h137q81 0 119 49l430 559h237l-465 -600q-24 -30 -48.5 -53.5t-37.5 -32.5l-12 -8v-4q33 -28 51 -91l133 -432q17 -49 78 -49h64l-33 -176h-135q-65 0 -101 25.5t-55 83.5l-153 501q-8 30 -34.5 41 t-76.5 11h-133l-129 -662h-205l246 1270h-244q-44 0 -53 -45l-19 -92h-186z" />
<glyph unicode="&#x4a1;" horiz-adv-x="1308" d="M59 754l33 170q13 66 47.5 89t106.5 23h297q59 0 85.5 -16.5t26.5 -58.5q0 -15 -4 -43l-55 -289h88q67 0 107 47l317 360h233l-366 -415q-25 -28 -48 -47.5t-33 -25.5l-11 -5v-4q32 -15 57 -78l102 -250q10 -24 27.5 -32.5t56.5 -8.5h64l-35 -170h-137q-72 0 -100.5 18 t-51.5 78l-121 322q-10 25 -33 33t-61 8h-90l-88 -459h-201l158 805q8 36 8 45q0 27 -32 27h-123q-37 0 -47 -41l-15 -82h-162z" />
<glyph unicode="&#x4a2;" horiz-adv-x="1601" d="M84 0l231 1186q9 52 9 53q0 31 -41 31h-84l34 176h195q119 0 119 -92q0 -38 -8 -74l-95 -469h738l100 510q13 69 48.5 97t101.5 28h213l-35 -176h-92q-42 0 -50 -45l-204 -1049h71q57 0 83 -19.5t26 -62.5q0 -20 -6 -47l-64 -334h-184l39 201q10 48 10 55q0 31 -35 31 h-180l123 635h-735l-123 -635h-205z" />
<glyph unicode="&#x4a3;" horiz-adv-x="1292" d="M57 0l150 780q10 38 10 54q0 32 -37 32h-84l33 170h197q57 0 83.5 -21t26.5 -65q0 -21 -6 -45l-55 -291h524l80 422h199l-170 -870h51q104 0 104 -84q0 -21 -6 -45l-55 -283h-184l30 158q10 52 10 57q0 28 -24 31h-156l88 449h-524l-88 -449h-197z" />
<glyph unicode="&#x4a4;" horiz-adv-x="1929" d="M84 0l229 1184q2 13 5 26t4.5 19t1.5 8q0 33 -37 33h-88l34 176h207q56 0 83.5 -20.5t27.5 -65.5q0 -21 -6 -45l-99 -504h689l90 459h-133l34 176h813q56 0 81.5 -19t25.5 -61q0 -20 -6 -47l-35 -186h-186l10 61q6 41 6 45q0 31 -37 31h-368l-248 -1270h-205l125 635 h-690l-123 -635h-205z" />
<glyph unicode="&#x4a5;" horiz-adv-x="1552" d="M57 0l152 786q10 38 10 50q0 30 -39 30h-82l33 170h197q57 0 82.5 -20.5t25.5 -65.5q0 -13 -4 -45l-61 -313h477l55 285h-127l31 159h661q60 0 86.5 -15t26.5 -56q0 -27 -4 -41l-31 -164h-166l11 51q4 18 4 39q0 27 -29 27h-264l-172 -877h-197l82 426h-475l-84 -426 h-199z" />
<glyph unicode="&#x4a6;" horiz-adv-x="2027" d="M84 0l246 1270h-133l34 176h1010q111 0 111 -84q0 -23 -6 -47l-97 -492q142 60 289 60q399 0 399 -447q0 -114 -25.5 -227.5t-80.5 -219.5t-131.5 -186.5t-188 -126.5t-241.5 -41l33 168q103 1 187 60.5t133.5 152t76 196.5t26.5 206q0 138 -55.5 212.5t-197.5 74.5 q-105 0 -259 -64l-124 -641h-203l229 1196q8 36 8 43q0 31 -39 31h-553l-245 -1270h-203z" />
<glyph unicode="&#x4a7;" horiz-adv-x="1665" d="M53 0l170 866h-117l33 170h1045l-33 -170h-117l-57 -303q112 53 240 53q166 0 251.5 -101.5t85.5 -268.5q0 -130 -50 -258.5t-152 -239.5t-240 -172l-68 152q137 73 223.5 214t86.5 289q0 213 -209 213q-98 0 -203 -57l-76 -387h-198l170 866h-416l-168 -866h-201z" />
<glyph unicode="&#x4a8;" horiz-adv-x="1847" d="M88 606q0 136 38 259.5t100 217t145 171.5t169.5 129.5t176.5 84.5l76 -180q-90 -32 -174 -89t-158.5 -139.5t-120 -199t-45.5 -248.5q0 -93 29 -174t84.5 -143t143.5 -97.5t198 -35.5q92 0 204 33q-109 86 -168 213.5t-59 287.5q0 151 53 290t141.5 239.5t208.5 160.5 t248 60q201 0 319 -128t118 -339q0 -233 -131 -441.5t-341 -351.5q71 -18 166 -18h146l-33 -168h-137q-186 0 -340 68q-210 -93 -406 -93q-290 0 -470.5 175t-180.5 456zM932 692q0 -136 54.5 -245.5t158.5 -172.5q202 108 332.5 294.5t130.5 402.5q0 137 -67.5 214 t-174.5 77q-80 0 -158 -43t-139 -116.5t-99 -181.5t-38 -229z" />
<glyph unicode="&#x4a9;" horiz-adv-x="1599" d="M49 483q0 103 36.5 198t99 167.5t143 126.5t170.5 84l65 -164q-60 -20 -115.5 -55t-103.5 -85.5t-77 -120.5t-29 -149q0 -149 98.5 -247.5t263.5 -98.5q109 0 207 33q-199 153 -199 408q0 129 64.5 239t179.5 176t254 66q121 0 210 -53t132 -137t43 -187 q0 -149 -83.5 -281t-225.5 -229q58 -18 147 -18h131l-30 -156h-123q-173 0 -320 59q-201 -84 -393 -84q-116 0 -216.5 37t-173 103t-114 161t-41.5 207zM799 584q0 -230 190 -344q140 74 225.5 186.5t85.5 251.5q0 43 -11.5 81.5t-35.5 71.5t-67.5 52.5t-100.5 19.5 q-117 0 -201.5 -91.5t-84.5 -227.5z" />
<glyph unicode="&#x4aa;" horiz-adv-x="1421" d="M84 604q0 165 66.5 322.5t179 277.5t273 193t337.5 73q83 0 167.5 -16.5t160.5 -49t124 -89t48 -127.5q0 -30 -13 -90l-16 -82h-186l16 78q10 50 -19.5 88t-81.5 58t-105 30t-101 10q-124 0 -241 -52t-204.5 -140.5t-140.5 -212.5t-53 -261q0 -200 117.5 -323t320.5 -123 q130 0 254.5 45.5t216.5 128.5l92 -160q-96 -89 -237.5 -143t-294.5 -62l-49 -264h-185l54 275q-226 38 -363 206t-137 410z" />
<glyph unicode="&#x4ab;" horiz-adv-x="1079" d="M45 434q0 168 85 312.5t229.5 229.5t312.5 85q47 0 97.5 -7t105 -25t94 -44.5t61 -70t10.5 -97.5l-16 -90h-176l8 43q7 39 -25 68t-78 41t-96 12q-163 0 -286 -130t-123 -308q0 -135 77 -218t224 -83q59 0 114.5 13t93.5 31t68 36t44 31l14 13l57 -157q-5 -5 -15 -14 t-45.5 -32t-75 -41.5t-104 -35t-133.5 -19.5l-41 -223h-178l45 236q-166 35 -257 153.5t-91 290.5z" />
<glyph unicode="&#x4ac;" horiz-adv-x="1294" d="M127 1133l37 196q12 66 41.5 91.5t95.5 25.5h989q64 0 89.5 -23.5t25.5 -68.5q0 -29 -10 -74l-27 -147h-184l12 57q8 40 8 49q0 31 -43 31h-284l-213 -1094h71q57 0 82 -19.5t25 -62.5q0 -11 -4 -47l-66 -334h-184l39 201q10 48 10 55q0 28 -31 31h-182l248 1270h-291 q-44 0 -53 -45l-19 -92h-182z" />
<glyph unicode="&#x4ad;" horiz-adv-x="1089" d="M61 752l29 157q13 68 51 97.5t109 29.5h754q57 0 83.5 -20t26.5 -64q0 -22 -6 -43l-29 -157h-166l9 47q6 30 6 37q0 30 -37 30h-199l-137 -700h51q55 0 79 -20.5t24 -63.5q0 -13 -4 -45l-56 -283h-182l31 158q10 52 10 57q0 28 -27 31h-155l168 866h-199q-46 0 -55 -45 l-13 -69h-166z" />
<glyph unicode="&#x4ae;" horiz-adv-x="1236" d="M147 1270l35 176h92q66 0 99.5 -22.5t60.5 -88.5l156 -362q14 -33 28 -74t22 -65l7 -25h4q58 90 115 164l287 362q51 66 93 88.5t107 22.5h125l-35 -176h-47q-54 0 -90 -47l-481 -592l-123 -631h-205l123 631l-252 588q-19 51 -71 51h-50z" />
<glyph unicode="&#x4af;" horiz-adv-x="1089" d="M76 866l35 170h90q66 0 93.5 -22t39.5 -82l112 -541q5 -24 9.5 -56t6.5 -51l1 -20h4q37 72 68 127l325 541q37 60 74 82t104 22h111l-31 -170h-22q-46 0 -72 -41l-487 -778l-91 -457h-196l90 457l-188 778q-4 23 -17.5 32t-38.5 9h-20z" />
<glyph unicode="&#x4b0;" horiz-adv-x="1236" d="M147 1270l35 176h92q66 0 99.5 -22.5t60.5 -88.5l156 -362q14 -33 28 -74t22 -65l7 -25h4q58 90 115 164l287 362q51 66 93 88.5t107 22.5h125l-35 -176h-47q-54 0 -90 -47l-481 -592l-2 -4h258l-29 -150h-258l-92 -477h-205l92 477h-235l29 150h235l2 4l-252 588 q-19 51 -71 51h-50z" />
<glyph unicode="&#x4b1;" horiz-adv-x="1089" d="M76 866l35 170h90q66 0 93.5 -22t39.5 -82l112 -541q5 -24 9.5 -56t6.5 -51l1 -20h4q37 72 68 127l325 541q37 60 74 82t104 22h111l-31 -170h-22q-46 0 -72 -41l-426 -680h193l-27 -145h-238l-80 -410h-196l80 410h-242l29 145h198l-163 680q-4 23 -17.5 32t-38.5 9h-20 z" />
<glyph unicode="&#x4b2;" horiz-adv-x="1282" d="M-88 0l602 752l-205 467q-21 51 -86 51h-51l35 176h112q70 0 106.5 -23t63.5 -88l113 -268l62 -168h4q59 88 120 168l213 268q50 64 91.5 87.5t109.5 23.5h139l-34 -176h-50q-34 0 -57.5 -10.5t-46.5 -40.5l-395 -482l243 -561h80q57 0 83 -19.5t26 -62.5q0 -20 -6 -47 l-66 -334h-182l39 201q10 48 10 55q0 12 -8 21t-21 10h-100l-184 432q-14 31 -29.5 70.5t-24.5 63.5l-8 24h-4q-53 -78 -119 -158l-342 -432h-233z" />
<glyph unicode="&#x4b3;" horiz-adv-x="1077" d="M-76 0l463 543l-149 284q-11 23 -30.5 31t-51.5 8h-60l35 170h127q59 0 89.5 -22.5t60.5 -85.5l94 -195l22 -63h4q25 38 45 63l158 195q38 47 61 67.5t53.5 30.5t78.5 10h147l-33 -170h-59q-35 0 -56 -7t-40 -30l-265 -305l175 -358h55q106 0 106 -84q0 -19 -6 -49 l-55 -279h-182l30 158l11 57q0 12 -8 21t-21 10h-59l-164 336l-23 57h-4q-16 -28 -39 -57l-280 -336h-230z" />
<glyph unicode="&#x4b4;" horiz-adv-x="1873" d="M121 1133l37 190q14 69 46 96t101 27h916q56 0 80 -17t24 -59q0 -23 -6 -47l-35 -190h-176l12 59q8 39 8 47q0 31 -38 31h-256l-199 -1022q-6 -24 -6 -39q0 -33 39 -33h688l248 1270h204l-247 -1270h49q57 0 82.5 -19.5t25.5 -62.5q0 -11 -4 -47l-65 -334h-185l41 205 q2 10 4 22.5t3 18.5t1 8q0 33 -34 33h-965q-57 0 -84 21t-27 67q0 23 5 43l221 1139h-254q-44 0 -53 -45l-17 -92h-184z" />
<glyph unicode="&#x4b5;" horiz-adv-x="1525" d="M63 760l31 162q12 66 47 90t107 24h651q61 0 87 -16t26 -57q0 -13 -4 -41l-29 -162h-141l10 51q6 24 6 35q0 28 -33 28h-176l-123 -620q-10 -48 -10 -55q0 -33 37 -33h502l170 870h198l-170 -870h31q104 0 104 -84q0 -13 -4 -45l-55 -283h-182l31 166q8 31 8 47 q0 33 -33 33h-743q-57 0 -83 20t-26 64q0 27 6 57l143 733h-184q-39 0 -45 -40l-12 -74h-142z" />
<glyph unicode="&#x4b6;" horiz-adv-x="1394" d="M145 1270l35 176h207q56 0 82.5 -20.5t26.5 -65.5q0 -13 -4 -45l-58 -295q-8 -44 -8 -88q0 -97 58 -145t182 -48q154 0 331 109l117 598h205l-250 -1270h74q55 0 80.5 -19.5t25.5 -62.5q0 -11 -4 -47l-65 -334h-183l39 201q11 53 11 55q0 28 -33 31h-185l115 582l17 67 h-5q-71 -38 -168 -66t-198 -28q-379 0 -379 307q0 54 12 119l43 219q4 28 4 37q0 33 -37 33h-88z" />
<glyph unicode="&#x4b7;" horiz-adv-x="1163" d="M76 866l33 170h186q108 0 108 -86q0 -11 -4 -47l-34 -176q-9 -35 -9 -65q0 -130 166 -130q124 0 246 74l84 430h199l-170 -870h49q55 0 78.5 -20t23.5 -64q0 -13 -4 -45l-55 -283h-185l31 158q10 52 10 57q0 31 -28 31h-152l74 371l16 65h-4q-142 -71 -291 -71 q-143 0 -218.5 63t-75.5 172q0 36 8 72l24 127q1 7 2.5 15.5t2.5 14t1 7.5q0 17 -8.5 23.5t-29.5 6.5h-74z" />
<glyph unicode="&#x4b8;" horiz-adv-x="1355" d="M145 1270l35 176h205q58 0 84.5 -20.5t26.5 -65.5q0 -17 -7 -45l-55 -295q-10 -41 -10 -88q0 -166 184 -189l56 285h151l-55 -283q128 19 270 103l115 598h205l-281 -1446h-205l113 582l16 67h-4q-118 -64 -264 -86l-43 -219h-152l41 211q-362 15 -362 307q0 54 12 119 l43 219q6 21 6 39q0 31 -37 31h-88z" />
<glyph unicode="&#x4b9;" horiz-adv-x="1155" d="M76 866l33 170h186q108 0 108 -86q0 -11 -4 -47l-34 -176q-9 -35 -9 -65q0 -111 138 -127l49 249h145l-47 -243q101 19 184 65l84 430h197l-201 -1036h-198l71 371q3 12 7.5 29t7.5 26.5t2 9.5h-4q-72 -37 -183 -59l-33 -174h-145l31 162q-150 1 -230.5 64.5t-80.5 170.5 q0 36 8 72l24 127q1 7 2.5 15.5t2.5 14t1 7.5q0 17 -8.5 23.5t-29.5 6.5h-74z" />
<glyph unicode="&#x4ba;" horiz-adv-x="1331" d="M84 0l229 1184q11 46 11 53q0 33 -37 33h-88l34 176h207q56 0 83.5 -20.5t27.5 -65.5q0 -21 -6 -45l-76 -395l-16 -68h4q172 86 370 86q179 0 267 -84t88 -229q0 -58 -11 -109l-49 -258q-2 -10 -4 -22.5t-3 -18.5t-1 -8q0 -33 37 -33h88l-35 -176h-207q-57 0 -83.5 21 t-26.5 67q0 19 6 43l65 342q11 48 11 96q0 185 -211 185q-94 0 -187.5 -30t-154.5 -69l-127 -655h-205z" />
<glyph unicode="&#x4bb;" horiz-adv-x="1234" d="M18 0l234 1198q8 32 8 47q0 31 -39 31h-84l35 170h188q60 0 88.5 -21.5t28.5 -68.5q0 -16 -8 -62l-74 -379l-20 -90h4q25 38 62 75t89.5 75.5t124 62t148.5 23.5q144 0 219.5 -73t75.5 -208q0 -43 -15 -127l-79 -420q-1 -4 -2.5 -11t-3 -12.5t-1.5 -8.5q0 -31 37 -31h84 l-33 -170h-190q-117 0 -117 94q0 23 6 47l95 477q10 58 10 103q0 158 -160 158q-100 0 -191 -60.5t-149 -150t-78 -185.5l-94 -483h-199z" />
<glyph unicode="&#x4bc;" horiz-adv-x="1730" d="M121 981q0 117 90 322h190q-92 -191 -92 -302q0 -65 29.5 -99.5t99.5 -35.5q41 125 113.5 233t169.5 191.5t223.5 131.5t265.5 48q234 0 366 -132.5t132 -366.5q0 -115 -43 -269h-1049q-13 -66 -8 -131.5t19 -125.5t48 -112t80.5 -90t115 -59.5t151.5 -21.5 q122 0 247.5 46t211.5 124l88 -162q-50 -44 -123.5 -85t-194 -75.5t-243.5 -34.5q-270 0 -430.5 149t-178.5 402q-5 72 7 179q-132 0 -208.5 71t-76.5 205zM651 864h846q12 56 12 111q0 139 -80 227t-237 88q-189 0 -337.5 -123.5t-203.5 -302.5z" />
<glyph unicode="&#x4bd;" horiz-adv-x="1341" d="M63 721q0 110 66 229h166q-72 -121 -72 -211q0 -47 23 -69t73 -25q64 182 217 299t353 117q190 0 290.5 -104.5t100.5 -276.5q0 -86 -31 -188h-757q-24 -147 53 -246t237 -99q169 0 328 121l59 -155q-70 -55 -179 -96.5t-226 -41.5q-210 0 -345.5 119t-135.5 326 q0 5 6 74q-111 3 -168.5 60.5t-57.5 166.5zM526 635h551q6 18 6 67q0 99 -55.5 152t-148.5 53q-113 0 -211 -72t-142 -200z" />
<glyph unicode="&#x4be;" horiz-adv-x="1730" d="M121 981q0 117 90 322h190q-92 -191 -92 -302q0 -65 29.5 -99.5t99.5 -35.5q41 125 113.5 233t169.5 191.5t223.5 131.5t265.5 48q234 0 366 -132.5t132 -366.5q0 -115 -43 -269h-1049q-13 -66 -8 -131.5t19 -125.5t48 -112t80.5 -90t115 -59.5t151.5 -21.5 q122 0 247.5 46t211.5 124l88 -162q-78 -71 -225.5 -131.5t-321.5 -63.5l-49 -262h-185l54 279q-198 43 -313.5 183t-129.5 351q-5 72 7 179q-132 0 -208.5 71t-76.5 205zM651 864h846q12 56 12 111q0 139 -80 227t-237 88q-189 0 -337.5 -123.5t-203.5 -302.5z" />
<glyph unicode="&#x4bf;" horiz-adv-x="1343" d="M63 721q0 110 66 229h166q-72 -121 -72 -211q0 -47 23 -69t73 -25q64 182 217 299t353 117q190 0 290.5 -104.5t100.5 -276.5q0 -86 -31 -188h-757q-24 -147 53 -246t237 -99q169 0 328 121l59 -155q-64 -52 -167 -92t-214 -46l-43 -221h-178l47 240 q-152 38 -241.5 148.5t-89.5 277.5q0 5 6 74q-111 3 -168.5 60.5t-57.5 166.5zM526 635h551q6 18 6 67q0 99 -55.5 152t-148.5 53q-113 0 -211 -72t-142 -200z" />
<glyph unicode="&#x4c0;" horiz-adv-x="651" d="M-31 0l35 176h139l213 1094h-141l35 176h477l-35 -176h-139l-213 -1094h139l-35 -176h-475z" />
<glyph unicode="&#x4c1;" horiz-adv-x="1816" d="M-100 0l512 664q25 32 52.5 56t42.5 32l15 8v4q-4 1 -11 5.5t-24 26.5t-30 56l-135 371q-10 29 -31.5 38t-63.5 9h-34l34 176h90q85 0 116 -20t56 -89l162 -446q12 -35 38 -46t75 -11h92l119 612h196l-118 -612h71q50 0 82.5 11t59.5 46l325 446q50 68 94 88.5t130 20.5 h104l-33 -176h-33q-40 0 -64 -9t-46 -38l-283 -379q-24 -34 -51 -57.5t-42 -30.5l-15 -6v-5q5 -2 13 -8t27 -30t31 -56l256 -651h-213l-233 608q-14 37 -38.5 48.5t-68.5 11.5h-106l-131 -668h-197l131 668h-94q-44 0 -72 -11.5t-57 -48.5l-465 -608h-235zM834 1729 q0 32 10 77h162q-11 -30 -11 -55q0 -50 33 -79.5t88 -29.5q66 0 115.5 39t60.5 125h158q-12 -80 -45.5 -138.5t-82.5 -91.5t-102.5 -48t-113.5 -15q-117 0 -194.5 61t-77.5 155z" />
<glyph unicode="&#x4c2;" horiz-adv-x="1527" d="M-84 0l330 426q30 38 63.5 63t51.5 31l18 6l2 4q-4 2 -11 6t-22 25t-24 51l-64 213q-7 25 -26 33t-60 8h-59l32 170h119q74 0 105 -18t51 -78l80 -268q17 -60 108 -60h68l82 424h190l-82 -424h60q37 0 67 11.5t56 48.5l184 268q42 59 84.5 77.5t118.5 18.5h123l-33 -170 h-51q-40 0 -61.5 -8t-39.5 -33l-145 -213q-20 -30 -45.5 -50.5t-41.5 -25.5l-16 -6v-4l4 -2q5 -2 15 -8.5t20.5 -17t23 -29.5t21.5 -43l166 -426h-207l-135 360q-19 49 -50.5 65.5t-80.5 16.5h-69l-86 -442h-193l88 442h-63q-49 0 -85 -16t-73 -66l-277 -360h-231zM618 1370 q0 28 11 78h162q-11 -30 -11 -55q0 -50 33 -79.5t88 -29.5q66 0 115.5 39t60.5 125h158q-12 -80 -45.5 -138.5t-82.5 -91.5t-102.5 -48t-113.5 -15q-117 0 -195 60.5t-78 154.5z" />
<glyph unicode="&#x4c3;" horiz-adv-x="1294" d="M84 0l235 1214q5 20 5 23q0 33 -39 33h-88l34 176h207q113 0 113 -86q0 -21 -6 -45l-94 -477h135q86 0 123 49l434 559h246l-435 -549q-60 -77 -106 -100l-2 -4q87 -29 149.5 -81.5t95.5 -117.5t47.5 -128.5t14.5 -131.5q0 -101 -26.5 -202.5t-80.5 -193t-128.5 -161 t-178 -108.5t-221.5 -34l33 172q76 2 141.5 36.5t110.5 90t77 126.5t47 144.5t15 145.5q0 152 -99 232t-274 80h-151l-129 -662h-205z" />
<glyph unicode="&#x4c4;" horiz-adv-x="1089" d="M57 0l152 782q2 11 4 23.5t3 19t1 9.5q0 32 -37 32h-84l33 170h197q112 0 112 -86q0 -5 -6 -41l-57 -293h65q36 0 64.5 12t60.5 50l305 358h240l-340 -395q-22 -26 -43.5 -45t-32.5 -25l-10 -6v-4q125 -36 185.5 -133.5t60.5 -220.5q0 -95 -27 -184.5t-69 -157 t-97.5 -126.5t-109 -97.5t-107.5 -65.5l-94 152q57 28 110 71t99.5 101.5t74 136t27.5 162.5q0 118 -77 181.5t-218 63.5h-100l-88 -444h-197z" />
<glyph unicode="&#x4c5;" horiz-adv-x="1452" d="M-102 -16l36 186q179 24 301 255.5t209 682.5l31 162h-135l35 176h850q110 0 110 -84q0 -25 -12 -86l-197 -1014q-10 -42 -10 -55q0 -14 10.5 -22.5t28.5 -8.5h178l-22 -117l-217 -346h-158l137 287h-72q-57 0 -83.5 21t-26.5 65q0 12 12 86l199 1012q8 39 8 55 q0 31 -39 31h-399l-31 -162q-41 -215 -88.5 -381.5t-111.5 -306.5t-141.5 -232t-178.5 -145t-223 -59z" />
<glyph unicode="&#x4c6;" horiz-adv-x="1163" d="M-90 -6l33 176q76 6 149 88q75 84 130.5 231.5t84.5 296.5l15 80h-129l32 170h668q58 0 85.5 -21t27.5 -65q0 -5 -5 -45l-133 -676q-4 -24 -4 -26q0 -33 35 -33h160l-23 -113l-184 -303h-150l115 246h-59q-57 0 -84 21t-27 67q0 19 6 43l129 676l2.5 10t2.5 10.5t1 6.5 q0 32 -38 32h-238l-16 -82q-16 -79 -38 -159.5t-58 -178.5t-89 -187.5t-116 -149.5q-125 -115 -285 -115z" />
<glyph unicode="&#x4c7;" horiz-adv-x="1560" d="M84 0l231 1188q2 10 4 21.5t3.5 18.5t1.5 11q0 31 -39 31h-88l36 176h207q57 0 83 -21t26 -65q0 -13 -4 -45l-99 -504h748l100 504q13 69 51 100t107 31h205l-35 -176h-88q-44 0 -53 -45l-217 -1121q-26 -133 -77 -229.5t-120 -151t-149 -76.5t-173 -14l35 179q34 0 62 5 t63 22.5t62 47.5t52 85t40 130l102 533h-749l-123 -635h-205z" />
<glyph unicode="&#x4c8;" horiz-adv-x="1267" d="M57 0l152 778q8 49 8 56q0 32 -37 32h-84l33 170h197q57 0 83.5 -21t26.5 -65q0 -21 -6 -45l-55 -291h526l55 291q13 69 51 100t107 31h195l-31 -170h-84q-44 0 -53 -45l-144 -723q-21 -111 -57.5 -195t-92 -144t-111 -99.5t-138.5 -83.5l-90 150q57 29 97.5 57t81.5 71 t68.5 103.5t43.5 138.5l67 348h-526l-86 -444h-197z" />
<glyph unicode="&#x4c9;" horiz-adv-x="1613" d="M84 0l231 1186q9 52 9 53q0 31 -41 31h-84l34 176h195q119 0 119 -92q0 -38 -8 -74l-95 -469h738l100 510q13 69 48.5 97t101.5 28h213l-35 -176h-92q-42 0 -50 -45l-204 -1049h229l-23 -117l-217 -346h-157l143 287h-215l123 635h-735l-123 -635h-205z" />
<glyph unicode="&#x4ca;" horiz-adv-x="1294" d="M57 0l152 784q10 45 10 52q0 30 -39 30h-84l33 170h197q57 0 83.5 -21t26.5 -65q0 -21 -6 -45l-55 -293h524l82 424h199l-154 -784q-8 -46 -8 -53q0 -29 37 -29h121l-21 -113l-186 -303h-148l115 246h-27q-57 0 -83.5 21t-26.5 65q0 24 6 51l61 309h-524l-88 -446h-197z " />
<glyph unicode="&#x4cb;" horiz-adv-x="1323" d="M145 1270l35 176h207q56 0 82.5 -20.5t26.5 -65.5q0 -13 -4 -45l-58 -295q-8 -44 -8 -88q0 -97 58 -145t182 -48q154 0 331 109l117 598h205l-285 -1446h-219q-44 0 -53 -45l-47 -242h-183l66 334q13 70 49 99.5t105 29.5h112l80 406l17 67h-5q-71 -38 -168 -66t-198 -28 q-379 0 -379 307q0 54 12 119l43 219q4 28 4 37q0 33 -37 33h-88z" />
<glyph unicode="&#x4cc;" horiz-adv-x="1097" d="M74 866l35 170h186q108 0 108 -86q0 -20 -6 -47l-30 -160q-7 -40 -7 -63q0 -62 37 -96.5t129 -34.5q69 0 134 23t110 53l80 411h199l-201 -1036h-162q-30 -3 -37 -45l-39 -201h-184l51 262q14 67 49 98t101 31h51l47 244l16 64h-2q-140 -70 -293 -70q-142 0 -218 62.5 t-76 170.5q0 20 8 74l20 109q6 24 6 37q0 17 -9 23.5t-30 6.5h-73z" />
<glyph unicode="&#x4cd;" horiz-adv-x="1822" d="M-72 0l33 176h68q43 0 55 45l336 1225h205l190 -768l35 -182h4q54 98 107 182l489 768h219l-135 -1190q-4 -36 -4 -49q0 -31 35 -31h186l-22 -117l-218 -346h-157l137 287h-59q-66 0 -94.5 23t-28.5 77q0 8 6 56l86 739q4 38 13.5 91.5t16.5 87.5l7 34h-4 q-70 -139 -119 -213l-416 -635h-172l-168 635q-8 34 -17.5 87.5t-14.5 90.5l-5 37h-4q-22 -131 -45 -215l-209 -772q-19 -66 -51.5 -94.5t-95.5 -28.5h-189z" />
<glyph unicode="&#x4ce;" horiz-adv-x="1550" d="M-80 0l33 170h51q35 0 47 39l234 827h207l155 -594l27 -131h4q41 70 80 131l383 594h229l-88 -794q-2 -25 -2 -43q0 -29 31 -29h155l-20 -113l-186 -303h-148l115 246h-49q-51 0 -72 19t-21 57q0 9 5 49l55 477q3 28 10.5 75.5t14.5 80.5l6 33h-5q-41 -80 -94 -160 l-340 -506h-178l-145 506q-9 34 -15.5 75t-8.5 65l-3 24h-4q-21 -130 -37 -193l-135 -489q-16 -59 -45.5 -86t-89.5 -27h-156z" />
<glyph unicode="&#x4cf;" horiz-adv-x="651" d="M-31 0l33 170h139l217 1106h-141l33 170h477l-33 -170h-139l-217 -1106h139l-33 -170h-475z" />
<glyph unicode="&#x4d0;" horiz-adv-x="1359" d="M-94 0l35 176h36q26 0 40.5 9t27.5 36l692 1225h215l215 -1229q4 -25 14.5 -33t35.5 -8h36l-34 -176h-123q-66 0 -92 24t-37 95l-52 297h-530l-168 -297q-39 -71 -73 -95t-99 -24h-139zM467 588h432l-74 442q-4 32 -8 82.5t-6 84.5l-2 34h-4q-55 -129 -96 -201zM592 1729 q0 32 10 77h162q-10 -27 -10 -55q0 -51 32.5 -80t87.5 -29q66 0 116 39.5t61 124.5h157q-12 -80 -45.5 -138.5t-82.5 -91.5t-102.5 -48t-113.5 -15q-117 0 -194.5 61t-77.5 155z" />
<glyph unicode="&#x4d1;" horiz-adv-x="1091" d="M-6 248q0 87 40.5 156.5t107 113.5t158 73.5t187.5 41.5t201 12h51l4 25q9 44 9 80q0 153 -185 153q-68 0 -127.5 -18t-66.5 -62l-11 -59h-188l21 104q10 53 50.5 92t99 60t120.5 31t127 10q182 0 270 -77t88 -216q0 -46 -14 -121l-76 -403q-8 -28 -8 -43q0 -31 37 -31 h86l-35 -170h-174q-58 0 -85.5 22.5t-27.5 61.5q0 44 21 113h-4q2 0 -13 -23t-46 -55.5t-73.5 -65t-107 -55.5t-135.5 -23q-129 0 -215 70.5t-86 202.5zM195 276q0 -68 43 -107.5t114 -39.5q85 0 164 56.5t127 132t62 147.5l8 37h-51q-60 0 -116 -4.5t-122.5 -19t-115 -38.5 t-81 -66t-32.5 -98zM389 1370q0 33 10 78h162q-10 -27 -10 -55q0 -50 33 -79.5t88 -29.5q66 0 115.5 39t60.5 125h158q-12 -80 -45.5 -138.5t-82.5 -91.5t-102.5 -48t-113.5 -15q-117 0 -195 60.5t-78 154.5z" />
<glyph unicode="&#x4d2;" horiz-adv-x="1359" d="M-94 0l35 176h36q26 0 40.5 9t27.5 36l692 1225h215l215 -1229q4 -25 14.5 -33t35.5 -8h36l-34 -176h-123q-66 0 -92 24t-37 95l-52 297h-530l-168 -297q-39 -71 -73 -95t-99 -24h-139zM467 588h432l-74 442q-4 32 -8 82.5t-6 84.5l-2 34h-4q-55 -129 -96 -201zM631 1599 l41 207h149l-41 -207h-149zM967 1599l41 207h151l-41 -207h-151z" />
<glyph unicode="&#x4d3;" horiz-adv-x="1091" d="M-6 248q0 87 40.5 156.5t107 113.5t158 73.5t187.5 41.5t201 12h51l4 25q9 44 9 80q0 153 -185 153q-68 0 -127.5 -18t-66.5 -62l-11 -59h-188l21 104q10 53 50.5 92t99 60t120.5 31t127 10q182 0 270 -77t88 -216q0 -46 -14 -121l-76 -403q-8 -28 -8 -43q0 -31 37 -31 h86l-35 -170h-174q-58 0 -85.5 22.5t-27.5 61.5q0 44 21 113h-4q2 0 -13 -23t-46 -55.5t-73.5 -65t-107 -55.5t-135.5 -23q-129 0 -215 70.5t-86 202.5zM195 276q0 -68 43 -107.5t114 -39.5q85 0 164 56.5t127 132t62 147.5l8 37h-51q-60 0 -116 -4.5t-122.5 -19t-115 -38.5 t-81 -66t-32.5 -98zM399 1241l41 207h150l-41 -207h-150zM735 1241l41 207h152l-41 -207h-152z" />
<glyph unicode="&#x4d4;" horiz-adv-x="1773" d="M-88 0l35 176h30q26 0 39.5 8.5t28.5 36.5l717 1225h915q119 0 119 -92q0 -29 -10 -74l-27 -147h-188l12 57q6 35 6 49q0 31 -41 31h-395l-88 -453h496l-35 -176h-496l-76 -387q-6 -27 -6 -47q0 -31 37 -31h410q46 0 55 45l18 92h187l-35 -186q-13 -69 -49 -98t-101 -29 h-628q-119 0 -119 92q0 24 10 76l92 473h-323l-297 -522q-43 -74 -74.5 -96.5t-103.5 -22.5h-115zM602 817h258l88 453h-88z" />
<glyph unicode="&#x4d5;" horiz-adv-x="1738" d="M-6 248q0 69 23 126t61.5 97t92.5 70.5t111 48.5t123 29.5t122 15.5t114 4h92q12 61 12 98q0 81 -45 123.5t-135 42.5q-28 0 -56 -3t-60 -11t-53 -25t-25 -41l-13 -59h-188l20 104q9 45 40 80.5t72.5 56t94.5 34t99.5 18t93.5 4.5q121 0 196.5 -46.5t104.5 -127.5h4 q76 85 175.5 129.5t209.5 44.5q194 0 295.5 -104t101.5 -281q0 -36 -8 -81t-16 -72l-8 -27h-746q-6 -31 -6 -68q0 -130 75.5 -207.5t211.5 -77.5q50 0 102 12.5t90.5 29.5t70 34.5t47.5 30.5l17 12l58 -149q-7 -6 -20 -15t-55.5 -33t-86 -42t-108 -33t-126.5 -15 q-160 0 -271 68t-155 186h-4q-10 -20 -27 -45t-54.5 -64t-83 -69.5t-114.5 -53t-145 -22.5q-135 0 -228 73.5t-93 199.5zM197 270q0 -59 42 -97t123 -38q60 0 118.5 30t101.5 78t74 106t44 116l7 31h-97q-42 0 -81 -3t-89 -10.5t-90.5 -23.5t-76.5 -40t-56 -62t-20 -87z M934 639h541q4 30 4 59q0 100 -56 152.5t-145 52.5q-116 0 -206.5 -68.5t-137.5 -195.5z" />
<glyph unicode="&#x4d6;" horiz-adv-x="1169" d="M106 92q0 19 11 76l215 1102h-133l34 176h838q121 0 121 -92q0 -29 -10 -74l-29 -147h-186l12 57q6 35 6 49q0 31 -41 31h-407l-88 -453h505l-34 -176h-506l-76 -387q-6 -27 -6 -47q0 -31 37 -31h422q46 0 55 45l18 92h187l-37 -186q-12 -69 -48 -98t-102 -29h-639 q-119 0 -119 92zM537 1729q0 32 10 77h162q-11 -30 -11 -55q0 -50 33 -79.5t88 -29.5q66 0 115.5 39t60.5 125h158q-12 -80 -45.5 -138.5t-82.5 -91.5t-102.5 -48t-113.5 -15q-117 0 -194.5 61t-77.5 155z" />
<glyph unicode="&#x4d7;" horiz-adv-x="1105" d="M43 416q0 172 77.5 319.5t217 236.5t309.5 89q193 0 293 -104.5t100 -278.5q0 -39 -7.5 -85t-14.5 -73l-8 -26h-756q-8 -35 -8 -74q0 -121 78 -197t217 -76q50 0 102 12.5t91 29.5t71 34.5t49 30.5l16 12l58 -153q-7 -6 -20 -15t-55.5 -33t-86.5 -42t-109.5 -33 t-128.5 -15q-223 0 -354 122.5t-131 318.5zM285 635h551q6 30 6 59q0 100 -55.5 154.5t-145.5 54.5q-116 0 -213.5 -71.5t-142.5 -196.5zM424 1370q0 33 10 78h162q-10 -27 -10 -55q0 -50 33 -79.5t88 -29.5q66 0 115.5 39t60.5 125h157q-12 -80 -45.5 -138.5t-82.5 -91.5 t-102.5 -48t-113.5 -15q-117 0 -194.5 60.5t-77.5 154.5z" />
<glyph unicode="&#x4d8;" horiz-adv-x="1423" d="M70 494q0 123 47 303h1050q9 74 9 90q0 182 -105 290.5t-295 108.5q-81 0 -163.5 -20.5t-145.5 -51.5t-98 -51.5t-56 -36.5l-88 158q13 10 35.5 25t80.5 45.5t120.5 54.5t153 42.5t180.5 18.5q279 0 434 -164.5t155 -437.5q0 -125 -33 -251.5t-100 -242t-159 -204.5 t-220 -142t-274 -53q-238 0 -383 136.5t-145 382.5zM268 483q0 -157 83.5 -241t246.5 -84q207 0 349.5 130t187.5 347h-850q-17 -78 -17 -152z" />
<glyph unicode="&#x4d9;" horiz-adv-x="1107" d="M33 356q0 96 41 217h751q4 13 4 56q0 119 -80.5 192.5t-220.5 73.5q-95 0 -189 -36.5t-142 -76.5l-60 152q49 41 165.5 84t244.5 43q219 0 351 -123t132 -334q0 -163 -76.5 -306.5t-216.5 -233t-311 -89.5q-191 0 -292 104.5t-101 276.5zM221 348q0 -104 57 -159.5 t152 -55.5q120 0 227 80.5t148 216.5h-574q-10 -38 -10 -82z" />
<glyph unicode="&#x4da;" horiz-adv-x="1425" d="M70 494q0 123 47 303h1050q9 74 9 90q0 182 -105 290.5t-295 108.5q-81 0 -163.5 -20.5t-145.5 -51.5t-98 -51.5t-56 -36.5l-88 158q13 10 35.5 25t80.5 45.5t120.5 54.5t153 42.5t180.5 18.5q279 0 434 -164.5t155 -437.5q0 -125 -33 -251.5t-100 -242t-159 -204.5 t-220 -142t-274 -53q-238 0 -383 136.5t-145 382.5zM268 483q0 -157 83.5 -241t246.5 -84q207 0 349.5 130t187.5 347h-850q-17 -78 -17 -152zM639 1599l41 207h149l-41 -207h-149zM975 1599l41 207h151l-41 -207h-151z" />
<glyph unicode="&#x4db;" horiz-adv-x="1110" d="M33 356q0 96 41 217h751q4 13 4 56q0 119 -80.5 192.5t-220.5 73.5q-95 0 -189 -36.5t-142 -76.5l-60 152q49 41 165.5 84t244.5 43q219 0 351 -123t132 -334q0 -163 -76.5 -306.5t-216.5 -233t-311 -89.5q-191 0 -292 104.5t-101 276.5zM221 348q0 -104 57 -159.5 t152 -55.5q120 0 227 80.5t148 216.5h-574q-10 -38 -10 -82zM401 1241l41 207h150l-41 -207h-150zM737 1241l41 207h152l-41 -207h-152z" />
<glyph unicode="&#x4dc;" horiz-adv-x="1816" d="M-100 0l512 664q25 32 52.5 56t42.5 32l15 8v4q-4 1 -11 5.5t-24 26.5t-30 56l-135 371q-10 29 -31.5 38t-63.5 9h-34l34 176h90q85 0 116 -20t56 -89l162 -446q12 -35 38 -46t75 -11h92l119 612h196l-118 -612h71q50 0 82.5 11t59.5 46l325 446q50 68 94 88.5t130 20.5 h104l-33 -176h-33q-40 0 -64 -9t-46 -38l-283 -379q-24 -34 -51 -57.5t-42 -30.5l-15 -6v-5q5 -2 13 -8t27 -30t31 -56l256 -651h-213l-233 608q-14 37 -38.5 48.5t-68.5 11.5h-106l-131 -668h-197l131 668h-94q-44 0 -72 -11.5t-57 -48.5l-465 -608h-235zM862 1599l41 207 h150l-41 -207h-150zM1198 1599l41 207h152l-41 -207h-152z" />
<glyph unicode="&#x4dd;" horiz-adv-x="1527" d="M-84 0l330 426q30 38 63.5 63t51.5 31l18 6l2 4q-4 2 -11 6t-22 25t-24 51l-64 213q-7 25 -26 33t-60 8h-59l32 170h119q74 0 105 -18t51 -78l80 -268q17 -60 108 -60h68l82 424h190l-82 -424h60q37 0 67 11.5t56 48.5l184 268q42 59 84.5 77.5t118.5 18.5h123l-33 -170 h-51q-40 0 -61.5 -8t-39.5 -33l-145 -213q-20 -30 -45.5 -50.5t-41.5 -25.5l-16 -6v-4l4 -2q5 -2 15 -8.5t20.5 -17t23 -29.5t21.5 -43l166 -426h-207l-135 360q-19 49 -50.5 65.5t-80.5 16.5h-69l-86 -442h-193l88 442h-63q-49 0 -85 -16t-73 -66l-277 -360h-231zM651 1241 l41 207h150l-41 -207h-150zM987 1241l41 207h152l-41 -207h-152z" />
<glyph unicode="&#x4de;" horiz-adv-x="1085" d="M-31 168l125 137q49 -65 130.5 -106t183.5 -41q147 0 252.5 83.5t105.5 213.5q0 96 -63.5 145t-172.5 49h-192l33 168h159q119 0 215.5 79t96.5 198q0 89 -54.5 142.5t-166.5 53.5q-94 0 -166 -40.5t-84 -98.5l-11 -59h-188l23 112q11 58 46 105t82 76.5t106 49 t114.5 27.5t109.5 8q177 0 289.5 -91t112.5 -251q0 -135 -77 -233.5t-202 -144.5v-5q90 -33 143.5 -105t53.5 -181q0 -105 -46.5 -197t-123.5 -154t-178 -97.5t-209 -35.5q-132 0 -253.5 50t-193.5 143zM473 1599l41 207h150l-41 -207h-150zM809 1599l41 207h151l-40 -207 h-152z" />
<glyph unicode="&#x4df;" horiz-adv-x="903" d="M-39 127l100 125q18 -21 45 -43t88 -47t128 -25q102 0 176.5 54.5t74.5 152.5q0 119 -184 119h-131l27 139h104q107 0 175.5 50.5t68.5 142.5q0 57 -44.5 85.5t-117.5 28.5q-66 0 -122.5 -24.5t-63.5 -73.5l-9 -47h-165l16 96q19 98 122 149.5t240 51.5 q159 0 250.5 -63.5t91.5 -180.5q0 -108 -61 -179.5t-145 -96.5v-4q64 -21 104.5 -71.5t40.5 -131.5q0 -85 -39 -155t-103.5 -113.5t-142 -67t-159.5 -23.5q-229 0 -365 152zM317 1241l41 207h150l-41 -207h-150zM653 1241l41 207h152l-41 -207h-152z" />
<glyph unicode="&#x4e0;" horiz-adv-x="1036" d="M-41 102l82 150q44 -40 130.5 -72.5t174.5 -32.5q102 0 190 39t142.5 112t54.5 163q0 99 -73.5 144.5t-243.5 45.5h-170l26 142l443 405q25 23 50.5 42.5t38.5 27.5l13 8l-2 4q-51 -4 -119 -4h-268q-44 0 -53 -45l-15 -70h-174l31 154q13 70 50.5 100.5t107.5 30.5h704 l-30 -160l-457 -420q-13 -11 -32 -25t-32 -22l-12 -8v-4q213 1 314.5 -92.5t101.5 -241.5q0 -141 -80.5 -255t-214 -176t-291.5 -62q-112 0 -216.5 37.5t-170.5 84.5z" />
<glyph unicode="&#x4e1;" horiz-adv-x="956" d="M-164 -307l82 149q43 -40 130 -72t175 -32q102 0 190 39t142.5 111.5t54.5 162.5q0 100 -73.5 145.5t-243.5 45.5h-170l27 141l442 405q25 23 50.5 42.5t38.5 27.5l13 8l-2 4q-51 -4 -119 -4h-268q-44 0 -53 -45l-14 -69h-175l31 153q13 70 50.5 100.5t107.5 30.5h704 l-30 -159l-457 -420q-13 -11 -32 -25t-31 -22l-13 -9v-4q213 1 314.5 -92.5t101.5 -241.5q0 -141 -80.5 -255t-214 -176t-291.5 -62q-112 0 -216 38t-171 85z" />
<glyph unicode="&#x4e2;" horiz-adv-x="1562" d="M84 0l238 1225q9 45 -35 45h-88l34 176h207q69 0 94 -31t11 -100l-156 -793q-6 -36 -19 -88t-22 -86l-10 -33h4q90 133 156 209l811 922h215l-240 -1225q-6 -45 37 -45h88l-35 -176h-205q-69 0 -94 31t-12 100l154 795q7 36 21 88.5t24 87.5l10 35h-4q-86 -133 -152 -211 l-817 -926h-215zM717 1608l26 141h521l-27 -141h-520z" />
<glyph unicode="&#x4e3;" horiz-adv-x="1267" d="M55 0l156 793q6 42 6 43q0 30 -37 30h-82l33 170h184q56 0 82.5 -20t26.5 -64q0 -21 -6 -45l-94 -481q-4 -24 -12 -56.5t-14.5 -56.5t-6.5 -26h4q8 13 49 61t74 82l565 606h195l-154 -786q-8 -36 -8 -49q0 -31 37 -31h82l-33 -170h-184q-57 0 -83 21t-26 65q0 15 4 43 l92 483q11 54 35 138h-4q-57 -76 -123 -142l-561 -608h-197zM500 1251l26 142h521l-27 -142h-520z" />
<glyph unicode="&#x4e4;" horiz-adv-x="1562" d="M84 0l238 1225q9 45 -35 45h-88l34 176h207q69 0 94 -31t11 -100l-156 -793q-6 -36 -19 -88t-22 -86l-10 -33h4q90 133 156 209l811 922h215l-240 -1225q-6 -45 37 -45h88l-35 -176h-205q-69 0 -94 31t-12 100l154 795q7 36 21 88.5t24 87.5l10 35h-4q-86 -133 -152 -211 l-817 -926h-215zM731 1599l41 207h150l-41 -207h-150zM1067 1599l41 207h152l-41 -207h-152z" />
<glyph unicode="&#x4e5;" horiz-adv-x="1267" d="M55 0l156 793q6 42 6 43q0 30 -37 30h-82l33 170h184q56 0 82.5 -20t26.5 -64q0 -21 -6 -45l-94 -481q-4 -24 -12 -56.5t-14.5 -56.5t-6.5 -26h4q8 13 49 61t74 82l565 606h195l-154 -786q-8 -36 -8 -49q0 -31 37 -31h82l-33 -170h-184q-57 0 -83 21t-26 65q0 15 4 43 l92 483q11 54 35 138h-4q-57 -76 -123 -142l-561 -608h-197zM516 1241l41 207h150l-41 -207h-150zM852 1241l41 207h151l-40 -207h-152z" />
<glyph unicode="&#x4e6;" horiz-adv-x="1628" d="M82 606q0 137 47 268.5t131.5 238t194 187.5t242 125.5t268.5 44.5q184 0 327.5 -78.5t222 -219t78.5 -318.5q0 -174 -74 -337t-195 -281t-283 -189.5t-330 -71.5q-278 0 -453.5 177t-175.5 454zM295 614q0 -197 121 -321.5t313 -124.5q120 0 238 54.5t209 144.5 t147.5 215.5t56.5 259.5q0 195 -120.5 316.5t-311.5 121.5q-122 0 -241 -53t-209.5 -141.5t-146.5 -213t-56 -258.5zM758 1599l41 207h149l-41 -207h-149zM1094 1599l41 207h151l-41 -207h-151z" />
<glyph unicode="&#x4e7;" horiz-adv-x="1255" d="M43 432q0 130 55 248t145 200.5t209.5 131.5t245.5 49q212 0 346 -126t134 -327q0 -175 -94 -322t-244.5 -229t-317.5 -82q-211 0 -345 127t-134 330zM246 440q0 -130 82 -211.5t213 -81.5q107 0 206.5 58t163.5 163.5t64 229.5q0 129 -81 210t-210 81 q-109 0 -209.5 -58.5t-164.5 -163t-64 -227.5zM506 1241l41 207h149l-41 -207h-149zM842 1241l41 207h151l-41 -207h-151z" />
<glyph unicode="&#x4e8;" horiz-adv-x="1628" d="M82 606q0 137 47 268.5t131.5 238t194 187.5t242 125.5t268.5 44.5q184 0 327.5 -78.5t222 -219t78.5 -318.5q0 -174 -74 -337t-195 -281t-283 -189.5t-330 -71.5q-278 0 -453.5 177t-175.5 454zM295 614q0 -197 121 -321.5t313 -124.5q199 0 377 137.5t244 343.5h-1055 v-35zM326 811h1052q0 5 1 15.5t1 15.5q0 195 -120.5 316.5t-311.5 121.5q-201 0 -378 -133.5t-244 -335.5z" />
<glyph unicode="&#x4e9;" horiz-adv-x="1251" d="M41 432q0 130 55 248t145 200.5t209.5 131.5t245.5 49q212 0 346 -126t134 -327q0 -175 -94 -322t-244.5 -229t-317.5 -82q-211 0 -345 127t-134 330zM231 440q0 -136 85.5 -220.5t222.5 -84.5q135 0 258 92t168 234h-734v-21zM256 588h731v10q0 135 -85 220t-220 85 q-136 0 -256.5 -88t-169.5 -227z" />
<glyph unicode="&#x4ea;" horiz-adv-x="1628" d="M82 606q0 137 47 268.5t131.5 238t194 187.5t242 125.5t268.5 44.5q184 0 327.5 -78.5t222 -219t78.5 -318.5q0 -174 -74 -337t-195 -281t-283 -189.5t-330 -71.5q-278 0 -453.5 177t-175.5 454zM295 614q0 -197 121 -321.5t313 -124.5q199 0 377 137.5t244 343.5h-1055 v-35zM326 811h1052q0 5 1 15.5t1 15.5q0 195 -120.5 316.5t-311.5 121.5q-201 0 -378 -133.5t-244 -335.5zM764 1599l41 207h149l-41 -207h-149zM1100 1599l41 207h151l-41 -207h-151z" />
<glyph unicode="&#x4eb;" horiz-adv-x="1255" d="M43 432q0 130 55 248t145 200.5t209.5 131.5t245.5 49q212 0 346 -126t134 -327q0 -175 -94 -322t-244.5 -229t-317.5 -82q-211 0 -345 127t-134 330zM233 440q0 -136 85.5 -220.5t222.5 -84.5q135 0 258 92t168 234h-734v-21zM258 588h731v10q0 135 -85 220t-220 85 q-136 0 -256.5 -88t-169.5 -227zM504 1198l41 207h149l-41 -207h-149zM840 1198l41 207h151l-41 -207h-151z" />
<glyph unicode="&#x4ec;" horiz-adv-x="1427" d="M-14 199l116 137q63 -79 179 -127.5t243 -48.5q139 0 267.5 62.5t221 171t132.5 243.5h-754l31 168h760q12 134 -32.5 242t-146.5 173.5t-247 65.5q-79 0 -163 -19t-153 -61.5t-80 -99.5l-16 -80h-188l26 131q15 73 72.5 134t139.5 99t177.5 59t190.5 21q145 0 265 -48.5 t199 -133t122 -199t43 -245.5q0 -175 -70.5 -336.5t-188 -277.5t-277.5 -185.5t-333 -69.5q-158 0 -301 57t-235 167zM602 1599l41 207h150l-41 -207h-150zM938 1599l41 207h151l-40 -207h-152z" />
<glyph unicode="&#x4ed;" horiz-adv-x="1085" d="M-35 133l88 135q50 -60 132.5 -95.5t174.5 -35.5q146 0 263.5 87.5t164.5 221.5h-485l27 140h487q7 143 -76.5 228t-220.5 85q-79 0 -154 -30.5t-85 -80.5l-9 -49h-170l17 86q20 106 139 171t277 65q216 0 344.5 -129.5t128.5 -331.5q0 -121 -49.5 -235t-133.5 -200 t-204.5 -138t-253.5 -52q-114 0 -225.5 40.5t-176.5 117.5zM387 1241l41 207h150l-41 -207h-150zM723 1241l41 207h151l-41 -207h-151z" />
<glyph unicode="&#x4ee;" d="M41 78l111 147q71 -67 151 -67q62 0 106 39t91 120l-269 908q-8 25 -20.5 35t-38.5 10h-43l35 176h98q70 0 98.5 -24t47.5 -95l176 -625q10 -36 21 -81t17 -72l5 -27h4q37 80 92 180l348 625q40 72 77.5 95.5t113.5 23.5h124l-34 -176h-33q-29 0 -45 -9t-31 -34 l-573 -996q-68 -119 -153.5 -187.5t-203.5 -68.5q-74 0 -149 29t-123 74zM547 1608l26 141h521l-27 -141h-520z" />
<glyph unicode="&#x4ef;" horiz-adv-x="1112" d="M-164 -328l84 142l2 -3l6.5 -6.5t9 -8.5t11.5 -10t14 -10.5t17 -10.5t19.5 -9.5t21.5 -8t24.5 -5.5t26.5 -2q114 0 204 151l74 117l-194 817q-6 24 -17.5 32.5t-38.5 8.5h-24l33 170h133q47 0 69 -24t33 -80l121 -584q4 -24 7 -55t4 -51l1 -19h4q31 72 60 125l329 584 q35 61 71.5 82.5t100.5 21.5h127l-34 -170h-25q-52 0 -74 -41l-608 -1018q-142 -237 -362 -237q-39 0 -77.5 10.5t-65 25.5t-47 30t-30.5 26zM420 1249l26 140h523l-27 -140h-522z" />
<glyph unicode="&#x4f0;" d="M41 78l111 147q71 -67 151 -67q62 0 106 39t91 120l-269 908q-8 25 -20.5 35t-38.5 10h-43l35 176h98q70 0 98.5 -24t47.5 -95l176 -625q10 -36 21 -81t17 -72l5 -27h4q37 80 92 180l348 625q40 72 77.5 95.5t113.5 23.5h124l-34 -176h-33q-29 0 -45 -9t-31 -34 l-573 -996q-68 -119 -153.5 -187.5t-203.5 -68.5q-74 0 -149 29t-123 74zM559 1599l41 207h150l-41 -207h-150zM895 1599l41 207h151l-40 -207h-152z" />
<glyph unicode="&#x4f1;" horiz-adv-x="1112" d="M-164 -328l84 142l2 -3l6.5 -6.5t9 -8.5t11.5 -10t14 -10.5t17 -10.5t19.5 -9.5t21.5 -8t24.5 -5.5t26.5 -2q114 0 204 151l74 117l-194 817q-6 24 -17.5 32.5t-38.5 8.5h-24l33 170h133q47 0 69 -24t33 -80l121 -584q4 -24 7 -55t4 -51l1 -19h4q31 72 60 125l329 584 q35 61 71.5 82.5t100.5 21.5h127l-34 -170h-25q-52 0 -74 -41l-608 -1018q-142 -237 -362 -237q-39 0 -77.5 10.5t-65 25.5t-47 30t-30.5 26zM428 1241l41 207h149l-40 -207h-150zM764 1241l41 207h151l-41 -207h-151z" />
<glyph unicode="&#x4f2;" d="M41 78l111 147q71 -67 151 -67q62 0 106 39t91 120l-269 908q-8 25 -20.5 35t-38.5 10h-43l35 176h98q70 0 98.5 -24t47.5 -95l176 -625q10 -36 21 -81t17 -72l5 -27h4q37 80 92 180l348 625q40 72 77.5 95.5t113.5 23.5h124l-34 -176h-33q-29 0 -45 -9t-31 -34 l-573 -996q-68 -119 -153.5 -187.5t-203.5 -68.5q-74 0 -149 29t-123 74zM541 1546l166 260h172l-168 -260h-170zM852 1546l174 260h201l-217 -260h-158z" />
<glyph unicode="&#x4f3;" horiz-adv-x="1112" d="M-164 -328l84 142l2 -3l6.5 -6.5t9 -8.5t11.5 -10t14 -10.5t17 -10.5t19.5 -9.5t21.5 -8t24.5 -5.5t26.5 -2q114 0 204 151l74 117l-194 817q-6 24 -17.5 32.5t-38.5 8.5h-24l33 170h133q47 0 69 -24t33 -80l121 -584q4 -24 7 -55t4 -51l1 -19h4q31 72 60 125l329 584 q35 61 71.5 82.5t100.5 21.5h127l-34 -170h-25q-52 0 -74 -41l-608 -1018q-142 -237 -362 -237q-39 0 -77.5 10.5t-65 25.5t-47 30t-30.5 26zM414 1188l166 260h172l-168 -260h-170zM725 1188l174 260h201l-217 -260h-158z" />
<glyph unicode="&#x4f4;" horiz-adv-x="1323" d="M145 1270l35 176h207q56 0 82.5 -20.5t26.5 -65.5q0 -13 -4 -45l-58 -295q-8 -44 -8 -88q0 -97 58 -145t182 -48q154 0 331 109l117 598h205l-285 -1446h-205l115 582l17 67h-5q-71 -38 -168 -66t-198 -28q-379 0 -379 307q0 54 12 119l43 219q4 28 4 37q0 33 -37 33h-88 zM569 1599l41 207h150l-41 -207h-150zM905 1599l41 207h152l-41 -207h-152z" />
<glyph unicode="&#x4f5;" horiz-adv-x="1099" d="M76 866l33 170h186q108 0 108 -86q0 -11 -4 -47l-34 -176q-9 -35 -9 -65q0 -130 166 -130q124 0 246 74l84 430h199l-203 -1036h-199l74 371l16 65h-4q-142 -71 -291 -71q-143 0 -218.5 63t-75.5 172q0 36 8 72l24 127q1 7 2.5 15.5t2.5 14t1 7.5q0 17 -8.5 23.5 t-29.5 6.5h-74zM422 1241l41 207h149l-41 -207h-149zM758 1241l41 207h151l-41 -207h-151z" />
<glyph unicode="&#x4f6;" horiz-adv-x="1056" d="M82 0l248 1270h-133l36 176h820q62 0 88 -23.5t26 -68.5q0 -6 -10 -74l-29 -147h-182l10 57q9 45 9 49q0 31 -43 31h-387l-213 -1094h73q57 0 83 -19.5t26 -62.5q0 -20 -6 -47l-66 -334h-182l39 201q10 48 10 55q0 28 -31 31h-186z" />
<glyph unicode="&#x4f7;" horiz-adv-x="905" d="M57 0l168 866h-129l33 170h688q58 0 84.5 -19t26.5 -63q0 -13 -4 -45l-31 -157h-166l10 55q1 6 2 13.5t1.5 11.5t0.5 6q0 28 -36 28h-281l-137 -700h51q53 0 77.5 -20.5t24.5 -63.5q0 -13 -4 -45l-55 -283h-184l30 158l11 57q0 28 -25 31h-156z" />
<glyph unicode="&#x4f8;" horiz-adv-x="1753" d="M104 88q0 18 7 43l202 1053q11 50 11 57q0 29 -39 29h-88l36 176h205q58 0 84.5 -20.5t26.5 -65.5q0 -21 -6 -45l-80 -414h266q179 0 288 -94t109 -277q0 -157 -77 -279t-206 -186.5t-286 -64.5h-342q-58 0 -84.5 21t-26.5 67zM330 209q0 -33 37 -33h223 q136 0 230.5 93.5t94.5 248.5q0 100 -56.5 153.5t-160.5 53.5h-268l-90 -467q-10 -45 -10 -49zM803 1599l41 207h149l-41 -207h-149zM1139 1599l41 207h151l-41 -207h-151zM1249 88q0 19 6 43l256 1315h205l-235 -1202q-6 -27 -6 -37q0 -31 36 -31h88l-34 -176h-205 q-57 0 -84 21t-27 67z" />
<glyph unicode="&#x4f9;" horiz-adv-x="1486" d="M74 74q0 25 4 39l129 678q10 38 10 45q0 30 -39 30h-84l33 170h197q112 0 112 -84q0 -7 -6 -43l-49 -250h197q161 0 245 -72.5t84 -193.5q0 -119 -57.5 -209.5t-154 -137t-216.5 -46.5h-311q-49 0 -71.5 18t-22.5 56zM287 172q0 -29 32 -29h150q105 0 170.5 66.5 t65.5 169.5q0 63 -41 100t-123 37h-187l-59 -301q-2 -11 -4 -21l-3 -15t-1 -7zM608 1241l41 207h150l-41 -207h-150zM944 1241l41 207h152l-41 -207h-152zM1020 131l176 905h199l-160 -821q-9 -45 35 -45h84l-33 -170h-197q-68 0 -92.5 31t-11.5 100z" />
<glyph unicode="&#x2000;" horiz-adv-x="914" />
<glyph unicode="&#x2001;" horiz-adv-x="1829" />
<glyph unicode="&#x2002;" horiz-adv-x="914" />
<glyph unicode="&#x2003;" horiz-adv-x="1829" />
<glyph unicode="&#x2004;" horiz-adv-x="609" />
<glyph unicode="&#x2005;" horiz-adv-x="457" />
<glyph unicode="&#x2006;" horiz-adv-x="304" />
<glyph unicode="&#x2007;" horiz-adv-x="304" />
<glyph unicode="&#x2008;" horiz-adv-x="228" />
<glyph unicode="&#x2009;" horiz-adv-x="365" />
<glyph unicode="&#x200a;" horiz-adv-x="101" />
<glyph unicode="&#x2010;" horiz-adv-x="841" d="M100 496l33 176h598l-35 -176h-596z" />
<glyph unicode="&#x2011;" horiz-adv-x="841" d="M100 496l33 176h598l-35 -176h-596z" />
<glyph unicode="&#x2012;" horiz-adv-x="841" d="M100 496l33 176h598l-35 -176h-596z" />
<glyph unicode="&#x2013;" horiz-adv-x="1327" d="M102 504l31 160h1079l-30 -160h-1080z" />
<glyph unicode="&#x2014;" horiz-adv-x="1732" d="M102 504l29 160h1489l-31 -160h-1487z" />
<glyph unicode="&#x2018;" horiz-adv-x="462" d="M188 1069l211 399h144l-164 -399h-191z" />
<glyph unicode="&#x2019;" horiz-adv-x="448" d="M197 1071l165 399h187l-209 -399h-143z" />
<glyph unicode="&#x201a;" horiz-adv-x="497" d="M-61 -182l163 397h189l-211 -397h-141z" />
<glyph unicode="&#x201c;" horiz-adv-x="745" d="M188 1069l211 399h144l-164 -399h-191zM473 1069l211 399h141l-163 -399h-189z" />
<glyph unicode="&#x201d;" horiz-adv-x="733" d="M197 1071l165 399h187l-209 -399h-143zM481 1071l164 399h189l-211 -399h-142z" />
<glyph unicode="&#x201e;" horiz-adv-x="782" d="M-61 -182l163 397h189l-211 -397h-141zM223 -182l164 397h186l-208 -397h-142z" />
<glyph unicode="&#x2026;" horiz-adv-x="1515" d="M12 0l39 211h203l-39 -211h-203zM543 0l39 211h204l-38 -211h-205zM1073 0l41 211h205l-41 -211h-205z" />
<glyph unicode="&#x202f;" horiz-adv-x="365" />
<glyph unicode="&#x2039;" horiz-adv-x="710" d="M80 582l393 417h209l-412 -430l262 -411h-188z" />
<glyph unicode="&#x203a;" horiz-adv-x="710" d="M18 158l412 430l-262 411h188l265 -424l-392 -417h-211z" />
<glyph unicode="&#x205f;" horiz-adv-x="457" />
<glyph unicode="&#x20ac;" horiz-adv-x="1181" d="M41 518l27 125h112q3 70 27 178h-109l25 125h127q103 234 312.5 379t457.5 145q59 0 117.5 -8t86.5 -16l29 -8l-77 -168q-78 20 -162 20q-168 0 -313.5 -93t-227.5 -251h576l-52 -125h-579q-25 -95 -31 -178h541l-51 -125h-478q18 -162 122 -261t284 -99q45 0 93 7t74 14 l25 7l4 -180q-90 -31 -213 -31q-253 0 -418.5 149t-185.5 394h-143z" />
<glyph unicode="&#x2122;" horiz-adv-x="2187" d="M260 1229v125q0 53 20.5 72.5t77.5 19.5h584q56 0 76 -19.5t20 -72.5v-125h-131v61q0 19 -20 19h-158v-764h-156v764h-157q-17 0 -17 -19v-61h-139zM1049 545v137h49q17 0 20 18l58 746h143l213 -471l29 -84h4q10 47 26 84l213 471h144l59 -746q0 -18 21 -18h49v-137 h-121q-57 0 -77.5 18.5t-23.5 75.5l-34 444l2 62h-4l-195 -434h-125l-194 434h-5q1 -3 1.5 -9t1.5 -23t0 -30l-35 -444q-3 -57 -23.5 -75.5t-77.5 -18.5h-118z" />
<glyph unicode="&#x25fc;" horiz-adv-x="1034" d="M0 0v1034h1034v-1034h-1034z" />
</font>
</defs>
</svg>
